<svg width="152" height="30" viewBox="0 0 152 30" fill="none" xmlns="http://www.w3.org/2000/svg">
<g clip-path="url(#clip0_222_244)">
<rect width="30" height="30" rx="3" fill="#FD5959"/>
<path d="M16.5646 6.00012V29.7274M16.5646 6.00012L9.71211 7.46828V32.5L20.5 33L20.7608 8.69169L16.5646 6.00012ZM21.2296 11.1386L22.8744 12.1832L24.5193 13.2278C24.5889 18.5273 24.6062 28.2001 24.6515 33.5M9.71211 10.3941L4 12.1832V34.4424" stroke="white" stroke-width="1.68047" stroke-linecap="round" stroke-linejoin="round"/>
<path d="M16.303 6L20.6969 8.63636L21.5757 35H16.303V6Z" fill="white"/>
<path d="M21 11L25 13.4V35H21V11Z" fill="white"/>
</g>
<path d="M38.4001 16V6.18182H40.9953V7.91406H41.1104C41.3149 7.33878 41.6558 6.88494 42.1331 6.55256C42.6104 6.22017 43.1814 6.05398 43.8461 6.05398C44.5194 6.05398 45.0926 6.2223 45.5656 6.55895C46.0386 6.89133 46.354 7.34304 46.5116 7.91406H46.6139C46.8142 7.35156 47.1764 6.90199 47.7006 6.56534C48.229 6.22443 48.8532 6.05398 49.5734 6.05398C50.4896 6.05398 51.2332 6.34588 51.8042 6.92969C52.3795 7.50923 52.6672 8.33168 52.6672 9.39702V16H49.9506V9.93395C49.9506 9.38849 49.8057 8.9794 49.5159 8.70668C49.2261 8.43395 48.8639 8.29759 48.4292 8.29759C47.9349 8.29759 47.5493 8.45526 47.2723 8.7706C46.9953 9.08168 46.8568 9.4929 46.8568 10.0043V16H44.2169V9.87642C44.2169 9.39489 44.0784 9.01136 43.8014 8.72585C43.5287 8.44034 43.1686 8.29759 42.7211 8.29759C42.4186 8.29759 42.1459 8.37429 41.903 8.5277C41.6643 8.67685 41.4747 8.88778 41.3341 9.16051C41.1934 9.42898 41.1231 9.74432 41.1231 10.1065V16H38.4001ZM66.8991 9.45455C66.8991 10.8821 66.6285 12.0966 66.0873 13.098C65.5503 14.0994 64.8174 14.8643 63.8884 15.3928C62.9637 15.9169 61.9239 16.179 60.7691 16.179C59.6057 16.179 58.5617 15.9148 57.637 15.3864C56.7123 14.858 55.9814 14.093 55.4445 13.0916C54.9076 12.0902 54.6391 10.8778 54.6391 9.45455C54.6391 8.02699 54.9076 6.8125 55.4445 5.81108C55.9814 4.80966 56.7123 4.04687 57.637 3.52273C58.5617 2.99432 59.6057 2.73011 60.7691 2.73011C61.9239 2.73011 62.9637 2.99432 63.8884 3.52273C64.8174 4.04687 65.5503 4.80966 66.0873 5.81108C66.6285 6.8125 66.8991 8.02699 66.8991 9.45455ZM64.093 9.45455C64.093 8.52983 63.9545 7.75 63.6775 7.11506C63.4047 6.48011 63.0191 5.99858 62.5205 5.67045C62.0219 5.34233 61.4381 5.17827 60.7691 5.17827C60.1001 5.17827 59.5162 5.34233 59.0177 5.67045C58.5191 5.99858 58.1313 6.48011 57.8543 7.11506C57.5816 7.75 57.4452 8.52983 57.4452 9.45455C57.4452 10.3793 57.5816 11.1591 57.8543 11.794C58.1313 12.429 58.5191 12.9105 59.0177 13.2386C59.5162 13.5668 60.1001 13.7308 60.7691 13.7308C61.4381 13.7308 62.0219 13.5668 62.5205 13.2386C63.0191 12.9105 63.4047 12.429 63.6775 11.794C63.9545 11.1591 64.093 10.3793 64.093 9.45455ZM77.0672 8.98153L74.5743 9.13494C74.5317 8.92187 74.4401 8.73011 74.2994 8.55966C74.1588 8.38494 73.9735 8.24645 73.7433 8.14418C73.5175 8.03764 73.2469 7.98438 72.9316 7.98438C72.5097 7.98438 72.1539 8.07386 71.8641 8.25284C71.5743 8.42756 71.4294 8.66193 71.4294 8.95597C71.4294 9.19034 71.5232 9.38849 71.7107 9.55043C71.8982 9.71236 72.2199 9.84233 72.6759 9.94034L74.4529 10.2983C75.4074 10.4943 76.1191 10.8097 76.5878 11.2443C77.0566 11.679 77.2909 12.25 77.2909 12.9574C77.2909 13.6009 77.1013 14.1655 76.722 14.6513C76.347 15.1371 75.8314 15.5163 75.1752 15.7891C74.5232 16.0575 73.771 16.1918 72.9188 16.1918C71.6191 16.1918 70.5835 15.9212 69.8122 15.38C69.0452 14.8345 68.5956 14.093 68.4635 13.1555L71.1418 13.0149C71.2227 13.4112 71.4188 13.7138 71.7298 13.9226C72.0409 14.1271 72.4394 14.2294 72.9252 14.2294C73.4024 14.2294 73.786 14.1378 74.0757 13.9545C74.3698 13.767 74.5189 13.5263 74.5232 13.2322C74.5189 12.9851 74.4145 12.7827 74.21 12.625C74.0054 12.4631 73.6901 12.3395 73.2639 12.2543L71.5637 11.9155C70.6048 11.7237 69.8911 11.3913 69.4223 10.9183C68.9578 10.4453 68.7256 9.84233 68.7256 9.10938C68.7256 8.47869 68.896 7.93537 69.2369 7.4794C69.5821 7.02344 70.0658 6.67188 70.6879 6.42472C71.3144 6.17756 72.0473 6.05398 72.8868 6.05398C74.1269 6.05398 75.1027 6.31605 75.8144 6.8402C76.5303 7.36435 76.9479 8.07812 77.0672 8.98153ZM79.0056 16V6.18182H81.7286V16H79.0056ZM80.3735 4.91619C79.9687 4.91619 79.6214 4.78196 79.3316 4.51349C79.0461 4.24077 78.9033 3.91477 78.9033 3.53551C78.9033 3.16051 79.0461 2.83878 79.3316 2.57031C79.6214 2.29758 79.9687 2.16122 80.3735 2.16122C80.7783 2.16122 81.1235 2.29758 81.409 2.57031C81.6988 2.83878 81.8437 3.16051 81.8437 3.53551C81.8437 3.91477 81.6988 4.24077 81.409 4.51349C81.1235 4.78196 80.7783 4.91619 80.3735 4.91619ZM88.3843 16.1918C87.3744 16.1918 86.5051 15.9872 85.7764 15.5781C85.0519 15.1648 84.4937 14.581 84.1017 13.8267C83.7096 13.0682 83.5136 12.1712 83.5136 11.1357C83.5136 10.1257 83.7096 9.23935 84.1017 8.47656C84.4937 7.71378 85.0455 7.11932 85.7572 6.69318C86.4731 6.26705 87.3126 6.05398 88.2757 6.05398C88.9234 6.05398 89.5264 6.15838 90.0846 6.36719C90.6471 6.57173 91.1372 6.88068 91.5548 7.29403C91.9767 7.70739 92.3048 8.22727 92.5392 8.85369C92.7735 9.47585 92.8907 10.2045 92.8907 11.0398V11.7876H84.6002V10.1001H90.3275C90.3275 9.7081 90.2423 9.3608 90.0718 9.05824C89.9014 8.75568 89.6649 8.51918 89.3623 8.34872C89.064 8.17401 88.7167 8.08665 88.3204 8.08665C87.907 8.08665 87.5406 8.18253 87.221 8.37429C86.9056 8.56179 86.6585 8.81534 86.4795 9.13494C86.3005 9.45028 86.2089 9.80185 86.2046 10.1896V11.794C86.2046 12.2798 86.2941 12.6996 86.4731 13.0533C86.6563 13.407 86.9142 13.6797 87.2465 13.8714C87.5789 14.0632 87.9731 14.1591 88.4291 14.1591C88.7316 14.1591 89.0086 14.1165 89.26 14.0312C89.5115 13.946 89.7267 13.8182 89.9056 13.6477C90.0846 13.4773 90.221 13.2685 90.3147 13.0213L92.8332 13.1875C92.7053 13.7926 92.4433 14.321 92.047 14.7727C91.6549 15.2202 91.1478 15.5696 90.5257 15.821C89.9078 16.0682 89.194 16.1918 88.3843 16.1918ZM98.2856 16.1598C97.5399 16.1598 96.8644 15.968 96.2593 15.5845C95.6585 15.1967 95.1812 14.6278 94.8275 13.8778C94.4781 13.1236 94.3034 12.1989 94.3034 11.1037C94.3034 9.97869 94.4845 9.04332 94.8467 8.29759C95.2089 7.54759 95.6904 6.98722 96.2913 6.61648C96.8964 6.24148 97.559 6.05398 98.2792 6.05398C98.8289 6.05398 99.287 6.14773 99.6535 6.33523C100.024 6.51847 100.323 6.74858 100.548 7.02557C100.778 7.2983 100.953 7.56676 101.073 7.83097H101.156V2.90909H103.872V16H101.188V14.4276H101.073C100.945 14.7003 100.764 14.9709 100.529 15.2393C100.299 15.5036 99.9987 15.723 99.6279 15.8977C99.2615 16.0724 98.814 16.1598 98.2856 16.1598ZM99.1485 13.9929C99.5874 13.9929 99.9582 13.8736 100.261 13.6349C100.568 13.392 100.802 13.0533 100.964 12.6186C101.13 12.1839 101.213 11.6747 101.213 11.0909C101.213 10.5071 101.132 10 100.97 9.5696C100.808 9.1392 100.574 8.80682 100.267 8.57244C99.9603 8.33807 99.5874 8.22088 99.1485 8.22088C98.7011 8.22088 98.324 8.34233 98.0171 8.58523C97.7103 8.82812 97.4781 9.16477 97.3204 9.59517C97.1627 10.0256 97.0839 10.5241 97.0839 11.0909C97.0839 11.6619 97.1627 12.1669 97.3204 12.6058C97.4823 13.0405 97.7146 13.3814 98.0171 13.6286C98.324 13.8714 98.7011 13.9929 99.1485 13.9929ZM108.834 2.90909V16H106.111V2.90909H108.834ZM115.49 16.1918C114.48 16.1918 113.611 15.9872 112.882 15.5781C112.157 15.1648 111.599 14.581 111.207 13.8267C110.815 13.0682 110.619 12.1712 110.619 11.1357C110.619 10.1257 110.815 9.23935 111.207 8.47656C111.599 7.71378 112.151 7.11932 112.863 6.69318C113.579 6.26705 114.418 6.05398 115.381 6.05398C116.029 6.05398 116.632 6.15838 117.19 6.36719C117.753 6.57173 118.243 6.88068 118.66 7.29403C119.082 7.70739 119.41 8.22727 119.645 8.85369C119.879 9.47585 119.996 10.2045 119.996 11.0398V11.7876H111.706V10.1001H117.433C117.433 9.7081 117.348 9.3608 117.177 9.05824C117.007 8.75568 116.77 8.51918 116.468 8.34872C116.169 8.17401 115.822 8.08665 115.426 8.08665C115.013 8.08665 114.646 8.18253 114.326 8.37429C114.011 8.56179 113.764 8.81534 113.585 9.13494C113.406 9.45028 113.314 9.80185 113.31 10.1896V11.794C113.31 12.2798 113.4 12.6996 113.579 13.0533C113.762 13.407 114.02 13.6797 114.352 13.8714C114.684 14.0632 115.079 14.1591 115.535 14.1591C115.837 14.1591 116.114 14.1165 116.366 14.0312C116.617 13.946 116.832 13.8182 117.011 13.6477C117.19 13.4773 117.326 13.2685 117.42 13.0213L119.939 13.1875C119.811 13.7926 119.549 14.321 119.152 14.7727C118.76 15.2202 118.253 15.5696 117.631 15.821C117.013 16.0682 116.299 16.1918 115.49 16.1918Z" fill="black"/>
<path d="M37.745 28.8409V22.0909H38.4737V22.8707H38.5632C38.6186 22.7855 38.6953 22.6768 38.7933 22.5447C38.8935 22.4105 39.0362 22.2912 39.2216 22.1868C39.4091 22.0803 39.6626 22.027 39.9822 22.027C40.3956 22.027 40.7599 22.1303 41.0753 22.337C41.3906 22.5437 41.6367 22.8366 41.8136 23.2159C41.9904 23.5952 42.0788 24.0426 42.0788 24.5582C42.0788 25.0781 41.9904 25.5288 41.8136 25.9102C41.6367 26.2894 41.3917 26.5835 41.0785 26.7923C40.7653 26.9989 40.4041 27.1023 39.995 27.1023C39.6797 27.1023 39.4272 27.0501 39.2376 26.9457C39.0479 26.8391 38.902 26.7187 38.7997 26.5845C38.6974 26.4482 38.6186 26.3352 38.5632 26.2457H38.4993V28.8409H37.745ZM38.4865 24.5455C38.4865 24.9162 38.5408 25.2433 38.6495 25.5266C38.7582 25.8079 38.9169 26.0284 39.1257 26.1882C39.3345 26.3459 39.5902 26.4247 39.8928 26.4247C40.2081 26.4247 40.4712 26.3416 40.6822 26.1754C40.8952 26.0071 41.055 25.7812 41.1616 25.4979C41.2702 25.2124 41.3246 24.8949 41.3246 24.5455C41.3246 24.2003 41.2713 23.8892 41.1648 23.6122C41.0604 23.3331 40.9016 23.1126 40.6886 22.9506C40.4776 22.7866 40.2124 22.7045 39.8928 22.7045C39.5859 22.7045 39.3281 22.7823 39.1193 22.9379C38.9105 23.0913 38.7528 23.3065 38.6463 23.5835C38.5398 23.8583 38.4865 24.179 38.4865 24.5455ZM44.674 27.1151C44.3629 27.1151 44.0806 27.0565 43.8271 26.9393C43.5735 26.82 43.3722 26.6484 43.223 26.4247C43.0739 26.1989 42.9993 25.9261 42.9993 25.6065C42.9993 25.3253 43.0547 25.0973 43.1655 24.9226C43.2763 24.7457 43.4244 24.6072 43.6097 24.5071C43.7951 24.407 43.9996 24.3324 44.2234 24.2834C44.4492 24.2322 44.6761 24.1918 44.9041 24.1619C45.2024 24.1236 45.4442 24.0948 45.6296 24.0756C45.8171 24.0543 45.9535 24.0192 46.0387 23.9702C46.1261 23.9212 46.1697 23.8359 46.1697 23.7145V23.6889C46.1697 23.3736 46.0835 23.1286 45.9109 22.9538C45.7404 22.7791 45.4815 22.6918 45.1342 22.6918C44.7741 22.6918 44.4918 22.7706 44.2873 22.9283C44.0827 23.0859 43.9389 23.2543 43.8558 23.4332L43.1399 23.1776C43.2678 22.8793 43.4382 22.647 43.6513 22.4808C43.8665 22.3125 44.1009 22.1953 44.3544 22.1293C44.6101 22.0611 44.8615 22.027 45.1087 22.027C45.2663 22.027 45.4474 22.0462 45.652 22.0845C45.8587 22.1207 46.0579 22.1964 46.2496 22.3114C46.4435 22.4265 46.6044 22.6001 46.7322 22.8324C46.8601 23.0646 46.924 23.3757 46.924 23.7656V27H46.1697V26.3352H46.1314C46.0803 26.4418 45.995 26.5558 45.8757 26.6772C45.7564 26.7987 45.5977 26.902 45.3995 26.9872C45.2013 27.0724 44.9595 27.1151 44.674 27.1151ZM44.7891 26.4375C45.0874 26.4375 45.3388 26.3789 45.5433 26.2617C45.75 26.1445 45.9055 25.9933 46.0099 25.8079C46.1165 25.6225 46.1697 25.4276 46.1697 25.223V24.5327C46.1378 24.571 46.0675 24.6062 45.9588 24.6381C45.8523 24.668 45.7287 24.6946 45.5881 24.718C45.4496 24.7393 45.3143 24.7585 45.1822 24.7756C45.0522 24.7905 44.9467 24.8033 44.8658 24.8139C44.6697 24.8395 44.4865 24.881 44.3161 24.9386C44.1477 24.994 44.0114 25.0781 43.907 25.1911C43.8047 25.3018 43.7536 25.4531 43.7536 25.6449C43.7536 25.907 43.8505 26.1051 44.0444 26.2393C44.2404 26.3714 44.4886 26.4375 44.7891 26.4375ZM49.055 24.0469V27H48.3007V22.0909H49.0294V22.858H49.0933C49.2084 22.6087 49.3831 22.4084 49.6175 22.2571C49.8518 22.1037 50.1544 22.027 50.5251 22.027C50.8575 22.027 51.1483 22.0952 51.3976 22.2315C51.6469 22.3658 51.8408 22.5703 51.9793 22.8452C52.1178 23.1179 52.1871 23.4631 52.1871 23.8807V27H51.4328V23.9318C51.4328 23.5462 51.3327 23.2457 51.1324 23.0305C50.9321 22.8132 50.6572 22.7045 50.3078 22.7045C50.067 22.7045 49.8518 22.7567 49.6622 22.8612C49.4747 22.9656 49.3266 23.1179 49.218 23.3182C49.1093 23.5185 49.055 23.7614 49.055 24.0469ZM55.6236 27.1023C55.1506 27.1023 54.7425 26.9979 54.3995 26.7891C54.0586 26.5781 53.7955 26.2841 53.6101 25.907C53.4268 25.5277 53.3352 25.0866 53.3352 24.5838C53.3352 24.081 53.4268 23.6378 53.6101 23.2543C53.7955 22.8686 54.0533 22.5682 54.3835 22.353C54.7159 22.1357 55.1037 22.027 55.5469 22.027C55.8026 22.027 56.055 22.0696 56.3043 22.1548C56.5536 22.2401 56.7805 22.3786 56.9851 22.5703C57.1896 22.7599 57.3526 23.0114 57.4741 23.3246C57.5955 23.6378 57.6562 24.0234 57.6562 24.4815V24.8011H53.8722V24.1491H56.8892C56.8892 23.8722 56.8338 23.625 56.723 23.4077C56.6143 23.1903 56.4588 23.0188 56.2564 22.8931C56.0561 22.7674 55.8196 22.7045 55.5469 22.7045C55.2464 22.7045 54.9865 22.7791 54.767 22.9283C54.5497 23.0753 54.3825 23.267 54.2653 23.5036C54.1481 23.7401 54.0895 23.9936 54.0895 24.2642V24.6989C54.0895 25.0696 54.1534 25.3839 54.2812 25.6417C54.4112 25.8974 54.5913 26.0923 54.8214 26.2266C55.0515 26.3587 55.3189 26.4247 55.6236 26.4247C55.8217 26.4247 56.0007 26.397 56.1605 26.3416C56.3224 26.2841 56.462 26.1989 56.5792 26.0859C56.6964 25.9709 56.7869 25.8281 56.8509 25.6577L57.5795 25.8622C57.5028 26.1094 57.3739 26.3267 57.1928 26.5142C57.0117 26.6996 56.788 26.8445 56.5217 26.9489C56.2553 27.0511 55.956 27.1023 55.6236 27.1023ZM59.5579 20.4545V27H58.8036V20.4545H59.5579ZM66.9479 23.1903L66.2703 23.3821C66.2277 23.2692 66.1649 23.1594 66.0818 23.0529C66.0008 22.9442 65.89 22.8548 65.7494 22.7844C65.6088 22.7141 65.4287 22.679 65.2093 22.679C64.9088 22.679 64.6585 22.7482 64.4582 22.8867C64.26 23.0231 64.161 23.1967 64.161 23.4077C64.161 23.5952 64.2291 23.7433 64.3655 23.8519C64.5019 23.9606 64.7149 24.0511 65.0047 24.1236L65.7334 24.3026C66.1723 24.4091 66.4994 24.5721 66.7146 24.7915C66.9298 25.0089 67.0374 25.2891 67.0374 25.6321C67.0374 25.9134 66.9564 26.1648 66.7945 26.3864C66.6347 26.608 66.411 26.7827 66.1233 26.9105C65.8357 27.0384 65.5012 27.1023 65.1198 27.1023C64.6191 27.1023 64.2046 26.9936 63.8765 26.7763C63.5484 26.5589 63.3406 26.2415 63.2533 25.8239L63.9692 25.6449C64.0374 25.9091 64.1663 26.1072 64.3559 26.2393C64.5477 26.3714 64.798 26.4375 65.107 26.4375C65.4585 26.4375 65.7377 26.3629 65.9443 26.2138C66.1531 26.0625 66.2575 25.8814 66.2575 25.6705C66.2575 25.5 66.1979 25.3572 66.0786 25.2422C65.9593 25.125 65.776 25.0376 65.5289 24.9801L64.7107 24.7884C64.2611 24.6818 63.9308 24.5167 63.7199 24.293C63.5111 24.0671 63.4067 23.7848 63.4067 23.446C63.4067 23.169 63.4845 22.924 63.64 22.7109C63.7977 22.4979 64.0118 22.3306 64.2824 22.2092C64.5551 22.0877 64.8641 22.027 65.2093 22.027C65.695 22.027 66.0764 22.1335 66.3534 22.3466C66.6325 22.5597 66.8307 22.8409 66.9479 23.1903ZM68.1728 27V22.0909H68.927V27H68.1728ZM68.5563 21.2727C68.4093 21.2727 68.2825 21.2227 68.176 21.1225C68.0716 21.0224 68.0194 20.902 68.0194 20.7614C68.0194 20.6207 68.0716 20.5004 68.176 20.4002C68.2825 20.3001 68.4093 20.25 68.5563 20.25C68.7033 20.25 68.829 20.3001 68.9334 20.4002C69.04 20.5004 69.0932 20.6207 69.0932 20.7614C69.0932 20.902 69.04 21.0224 68.9334 21.1225C68.829 21.2227 68.7033 21.2727 68.5563 21.2727ZM72.29 28.9432C71.9257 28.9432 71.6125 28.8963 71.3504 28.8026C71.0883 28.7109 70.8699 28.5895 70.6952 28.4382C70.5226 28.2891 70.3852 28.1293 70.2829 27.9588L70.8838 27.5369C70.952 27.6264 71.0383 27.7287 71.1427 27.8438C71.2471 27.9609 71.3898 28.0621 71.5709 28.1474C71.7542 28.2347 71.9939 28.2784 72.29 28.2784C72.6863 28.2784 73.0134 28.1825 73.2712 27.9908C73.529 27.799 73.6579 27.4986 73.6579 27.0895V26.0923H73.594C73.5386 26.1818 73.4598 26.2926 73.3575 26.4247C73.2574 26.5547 73.1125 26.6708 72.9229 26.7731C72.7354 26.8732 72.4818 26.9233 72.1622 26.9233C71.7659 26.9233 71.4101 26.8295 71.0947 26.642C70.7815 26.4545 70.5333 26.1818 70.3501 25.8239C70.1689 25.4659 70.0784 25.0312 70.0784 24.5199C70.0784 24.017 70.1668 23.5792 70.3437 23.2063C70.5205 22.8313 70.7666 22.5415 71.0819 22.337C71.3973 22.1303 71.7616 22.027 72.175 22.027C72.4946 22.027 72.7481 22.0803 72.9356 22.1868C73.1253 22.2912 73.2702 22.4105 73.3703 22.5447C73.4726 22.6768 73.5514 22.7855 73.6068 22.8707H73.6835V22.0909H74.4122V27.1406C74.4122 27.5625 74.3163 27.9055 74.1246 28.1697C73.9349 28.4361 73.6792 28.631 73.3575 28.7546C73.0379 28.8803 72.6821 28.9432 72.29 28.9432ZM72.2645 26.2457C72.567 26.2457 72.8227 26.1765 73.0315 26.038C73.2403 25.8995 73.3991 25.7003 73.5077 25.4403C73.6164 25.1804 73.6707 24.8693 73.6707 24.5071C73.6707 24.1534 73.6175 23.8413 73.5109 23.5707C73.4044 23.3001 73.2467 23.0881 73.0379 22.9347C72.8291 22.7812 72.5713 22.7045 72.2645 22.7045C71.9449 22.7045 71.6785 22.7855 71.4655 22.9474C71.2545 23.1094 71.0958 23.3267 70.9893 23.5994C70.8849 23.8722 70.8327 24.1747 70.8327 24.5071C70.8327 24.848 70.8859 25.1495 70.9925 25.4116C71.1011 25.6715 71.2609 25.8761 71.4719 26.0252C71.6849 26.1722 71.9491 26.2457 72.2645 26.2457ZM75.7929 27V22.0909H76.5216V22.858H76.5855C76.6878 22.5959 76.8529 22.3924 77.0809 22.2475C77.3089 22.1005 77.5827 22.027 77.9023 22.027C78.2261 22.027 78.4957 22.1005 78.7108 22.2475C78.9282 22.3924 79.0976 22.5959 79.219 22.858H79.2702C79.3959 22.6044 79.5844 22.4031 79.8358 22.2539C80.0873 22.1026 80.3888 22.027 80.7403 22.027C81.1792 22.027 81.5383 22.1644 81.8174 22.4393C82.0965 22.712 82.2361 23.1371 82.2361 23.7145V27H81.4818V23.7145C81.4818 23.3523 81.3827 23.0934 81.1846 22.9379C80.9864 22.7823 80.7531 22.7045 80.4846 22.7045C80.1395 22.7045 79.8721 22.8089 79.6824 23.0178C79.4928 23.2244 79.398 23.4865 79.398 23.804V27H78.6309V23.6378C78.6309 23.3587 78.5404 23.1339 78.3593 22.9634C78.1782 22.7908 77.9449 22.7045 77.6594 22.7045C77.4633 22.7045 77.2801 22.7567 77.1096 22.8612C76.9413 22.9656 76.805 23.1104 76.7006 23.2958C76.5983 23.479 76.5471 23.6911 76.5471 23.9318V27H75.7929ZM85.0597 27.1151C84.7487 27.1151 84.4664 27.0565 84.2128 26.9393C83.9593 26.82 83.7579 26.6484 83.6088 26.4247C83.4596 26.1989 83.385 25.9261 83.385 25.6065C83.385 25.3253 83.4404 25.0973 83.5512 24.9226C83.662 24.7457 83.8101 24.6072 83.9955 24.5071C84.1808 24.407 84.3854 24.3324 84.6091 24.2834C84.835 24.2322 85.0619 24.1918 85.2899 24.1619C85.5882 24.1236 85.83 24.0948 86.0154 24.0756C86.2029 24.0543 86.3392 24.0192 86.4244 23.9702C86.5118 23.9212 86.5555 23.8359 86.5555 23.7145V23.6889C86.5555 23.3736 86.4692 23.1286 86.2966 22.9538C86.1262 22.7791 85.8673 22.6918 85.52 22.6918C85.1599 22.6918 84.8776 22.7706 84.673 22.9283C84.4685 23.0859 84.3247 23.2543 84.2416 23.4332L83.5257 23.1776C83.6535 22.8793 83.824 22.647 84.037 22.4808C84.2522 22.3125 84.4866 22.1953 84.7401 22.1293C84.9958 22.0611 85.2472 22.027 85.4944 22.027C85.6521 22.027 85.8332 22.0462 86.0377 22.0845C86.2444 22.1207 86.4436 22.1964 86.6354 22.3114C86.8293 22.4265 86.9901 22.6001 87.118 22.8324C87.2458 23.0646 87.3097 23.3757 87.3097 23.7656V27H86.5555V26.3352H86.5171C86.466 26.4418 86.3808 26.5558 86.2615 26.6772C86.1421 26.7987 85.9834 26.902 85.7852 26.9872C85.5871 27.0724 85.3453 27.1151 85.0597 27.1151ZM85.1748 26.4375C85.4731 26.4375 85.7245 26.3789 85.9291 26.2617C86.1357 26.1445 86.2913 25.9933 86.3957 25.8079C86.5022 25.6225 86.5555 25.4276 86.5555 25.223V24.5327C86.5235 24.571 86.4532 24.6062 86.3445 24.6381C86.238 24.668 86.1144 24.6946 85.9738 24.718C85.8353 24.7393 85.7 24.7585 85.5679 24.7756C85.4379 24.7905 85.3325 24.8033 85.2515 24.8139C85.0555 24.8395 84.8722 24.881 84.7018 24.9386C84.5335 24.994 84.3971 25.0781 84.2927 25.1911C84.1904 25.3018 84.1393 25.4531 84.1393 25.6449C84.1393 25.907 84.2362 26.1051 84.4301 26.2393C84.6262 26.3714 84.8744 26.4375 85.1748 26.4375ZM92.6623 27.1151C92.3512 27.1151 92.0689 27.0565 91.8153 26.9393C91.5618 26.82 91.3604 26.6484 91.2113 26.4247C91.0621 26.1989 90.9876 25.9261 90.9876 25.6065C90.9876 25.3253 91.043 25.0973 91.1538 24.9226C91.2646 24.7457 91.4126 24.6072 91.598 24.5071C91.7834 24.407 91.9879 24.3324 92.2116 24.2834C92.4375 24.2322 92.6644 24.1918 92.8924 24.1619C93.1907 24.1236 93.4325 24.0948 93.6179 24.0756C93.8054 24.0543 93.9418 24.0192 94.027 23.9702C94.1143 23.9212 94.158 23.8359 94.158 23.7145V23.6889C94.158 23.3736 94.0717 23.1286 93.8991 22.9538C93.7287 22.7791 93.4698 22.6918 93.1225 22.6918C92.7624 22.6918 92.4801 22.7706 92.2756 22.9283C92.071 23.0859 91.9272 23.2543 91.8441 23.4332L91.1282 23.1776C91.256 22.8793 91.4265 22.647 91.6396 22.4808C91.8548 22.3125 92.0891 22.1953 92.3427 22.1293C92.5984 22.0611 92.8498 22.027 93.0969 22.027C93.2546 22.027 93.4357 22.0462 93.6403 22.0845C93.8469 22.1207 94.0462 22.1964 94.2379 22.3114C94.4318 22.4265 94.5927 22.6001 94.7205 22.8324C94.8484 23.0646 94.9123 23.3757 94.9123 23.7656V27H94.158V26.3352H94.1197C94.0685 26.4418 93.9833 26.5558 93.864 26.6772C93.7447 26.7987 93.5859 26.902 93.3878 26.9872C93.1896 27.0724 92.9478 27.1151 92.6623 27.1151ZM92.7773 26.4375C93.0756 26.4375 93.3271 26.3789 93.5316 26.2617C93.7383 26.1445 93.8938 25.9933 93.9982 25.8079C94.1048 25.6225 94.158 25.4276 94.158 25.223V24.5327C94.1261 24.571 94.0558 24.6062 93.9471 24.6381C93.8406 24.668 93.717 24.6946 93.5763 24.718C93.4379 24.7393 93.3026 24.7585 93.1705 24.7756C93.0405 24.7905 92.935 24.8033 92.854 24.8139C92.658 24.8395 92.4748 24.881 92.3043 24.9386C92.136 24.994 91.9996 25.0781 91.8952 25.1911C91.793 25.3018 91.7418 25.4531 91.7418 25.6449C91.7418 25.907 91.8388 26.1051 92.0327 26.2393C92.2287 26.3714 92.4769 26.4375 92.7773 26.4375ZM98.1427 27.1023C97.7336 27.1023 97.3724 26.9989 97.0592 26.7923C96.746 26.5835 96.501 26.2894 96.3241 25.9102C96.1473 25.5288 96.0589 25.0781 96.0589 24.5582C96.0589 24.0426 96.1473 23.5952 96.3241 23.2159C96.501 22.8366 96.7471 22.5437 97.0624 22.337C97.3778 22.1303 97.7421 22.027 98.1555 22.027C98.4751 22.027 98.7275 22.0803 98.9129 22.1868C99.1004 22.2912 99.2432 22.4105 99.3412 22.5447C99.4413 22.6768 99.5191 22.7855 99.5745 22.8707H99.6384V20.4545H100.393V27H99.664V26.2457H99.5745C99.5191 26.3352 99.4403 26.4482 99.338 26.5845C99.2357 26.7187 99.0898 26.8391 98.9001 26.9457C98.7105 27.0501 98.458 27.1023 98.1427 27.1023ZM98.2449 26.4247C98.5475 26.4247 98.8032 26.3459 99.012 26.1882C99.2208 26.0284 99.3795 25.8079 99.4882 25.5266C99.5969 25.2433 99.6512 24.9162 99.6512 24.5455C99.6512 24.179 99.5979 23.8583 99.4914 23.5835C99.3849 23.3065 99.2272 23.0913 99.0184 22.9379C98.8096 22.7823 98.5518 22.7045 98.2449 22.7045C97.9253 22.7045 97.659 22.7866 97.4459 22.9506C97.235 23.1126 97.0763 23.3331 96.9697 23.6122C96.8653 23.8892 96.8131 24.2003 96.8131 24.5455C96.8131 24.8949 96.8664 25.2124 96.9729 25.4979C97.0816 25.7812 97.2414 26.0071 97.4523 26.1754C97.6654 26.3416 97.9296 26.4247 98.2449 26.4247ZM101.879 27V22.0909H102.608V22.858H102.671C102.774 22.5959 102.939 22.3924 103.167 22.2475C103.395 22.1005 103.669 22.027 103.988 22.027C104.312 22.027 104.582 22.1005 104.797 22.2475C105.014 22.3924 105.184 22.5959 105.305 22.858H105.356C105.482 22.6044 105.67 22.4031 105.922 22.2539C106.173 22.1026 106.475 22.027 106.826 22.027C107.265 22.027 107.624 22.1644 107.903 22.4393C108.182 22.712 108.322 23.1371 108.322 23.7145V27H107.568V23.7145C107.568 23.3523 107.469 23.0934 107.271 22.9379C107.072 22.7823 106.839 22.7045 106.571 22.7045C106.225 22.7045 105.958 22.8089 105.768 23.0178C105.579 23.2244 105.484 23.4865 105.484 23.804V27H104.717V23.6378C104.717 23.3587 104.626 23.1339 104.445 22.9634C104.264 22.7908 104.031 22.7045 103.745 22.7045C103.549 22.7045 103.366 22.7567 103.196 22.8612C103.027 22.9656 102.891 23.1104 102.786 23.2958C102.684 23.479 102.633 23.6911 102.633 23.9318V27H101.879ZM109.701 27V22.0909H110.455V27H109.701ZM110.085 21.2727C109.938 21.2727 109.811 21.2227 109.704 21.1225C109.6 21.0224 109.548 20.902 109.548 20.7614C109.548 20.6207 109.6 20.5004 109.704 20.4002C109.811 20.3001 109.938 20.25 110.085 20.25C110.232 20.25 110.357 20.3001 110.462 20.4002C110.568 20.5004 110.622 20.6207 110.622 20.7614C110.622 20.902 110.568 21.0224 110.462 21.1225C110.357 21.2227 110.232 21.2727 110.085 21.2727ZM112.591 24.0469V27H111.837V22.0909H112.566V22.858H112.629C112.744 22.6087 112.919 22.4084 113.154 22.2571C113.388 22.1037 113.691 22.027 114.061 22.027C114.394 22.027 114.684 22.0952 114.934 22.2315C115.183 22.3658 115.377 22.5703 115.515 22.8452C115.654 23.1179 115.723 23.4631 115.723 23.8807V27H114.969V23.9318C114.969 23.5462 114.869 23.2457 114.669 23.0305C114.468 22.8132 114.193 22.7045 113.844 22.7045C113.603 22.7045 113.388 22.7567 113.198 22.8612C113.011 22.9656 112.863 23.1179 112.754 23.3182C112.645 23.5185 112.591 23.7614 112.591 24.0469ZM117.101 27V22.0909H117.856V27H117.101ZM117.485 21.2727C117.338 21.2727 117.211 21.2227 117.105 21.1225C117 21.0224 116.948 20.902 116.948 20.7614C116.948 20.6207 117 20.5004 117.105 20.4002C117.211 20.3001 117.338 20.25 117.485 20.25C117.632 20.25 117.758 20.3001 117.862 20.4002C117.969 20.5004 118.022 20.6207 118.022 20.7614C118.022 20.902 117.969 21.0224 117.862 21.1225C117.758 21.2227 117.632 21.2727 117.485 21.2727ZM122.714 23.1903L122.037 23.3821C121.994 23.2692 121.931 23.1594 121.848 23.0529C121.767 22.9442 121.657 22.8548 121.516 22.7844C121.375 22.7141 121.195 22.679 120.976 22.679C120.675 22.679 120.425 22.7482 120.225 22.8867C120.027 23.0231 119.928 23.1967 119.928 23.4077C119.928 23.5952 119.996 23.7433 120.132 23.8519C120.268 23.9606 120.482 24.0511 120.771 24.1236L121.5 24.3026C121.939 24.4091 122.266 24.5721 122.481 24.7915C122.696 25.0089 122.804 25.2891 122.804 25.6321C122.804 25.9134 122.723 26.1648 122.561 26.3864C122.401 26.608 122.178 26.7827 121.89 26.9105C121.602 27.0384 121.268 27.1023 120.886 27.1023C120.386 27.1023 119.971 26.9936 119.643 26.7763C119.315 26.5589 119.107 26.2415 119.02 25.8239L119.736 25.6449C119.804 25.9091 119.933 26.1072 120.123 26.2393C120.314 26.3714 120.565 26.4375 120.874 26.4375C121.225 26.4375 121.504 26.3629 121.711 26.2138C121.92 26.0625 122.024 25.8814 122.024 25.6705C122.024 25.5 121.964 25.3572 121.845 25.2422C121.726 25.125 121.543 25.0376 121.295 24.9801L120.477 24.7884C120.028 24.6818 119.697 24.5167 119.487 24.293C119.278 24.0671 119.173 23.7848 119.173 23.446C119.173 23.169 119.251 22.924 119.407 22.7109C119.564 22.4979 119.778 22.3306 120.049 22.2092C120.322 22.0877 120.631 22.027 120.976 22.027C121.462 22.027 121.843 22.1335 122.12 22.3466C122.399 22.5597 122.597 22.8409 122.714 23.1903ZM126.074 22.0909V22.7301H123.53V22.0909H126.074ZM124.272 20.9148H125.026V25.5938C125.026 25.8068 125.057 25.9666 125.119 26.0732C125.183 26.1776 125.264 26.2479 125.362 26.2841C125.462 26.3182 125.567 26.3352 125.678 26.3352C125.761 26.3352 125.829 26.331 125.883 26.3224C125.936 26.3118 125.978 26.3033 126.01 26.2969L126.164 26.9744C126.113 26.9936 126.041 27.0128 125.95 27.032C125.858 27.0533 125.742 27.0639 125.601 27.0639C125.388 27.0639 125.179 27.0181 124.975 26.9265C124.772 26.8349 124.604 26.6953 124.47 26.5078C124.338 26.3203 124.272 26.0838 124.272 25.7983V20.9148ZM127.209 27V22.0909H127.938V22.8324H127.989C128.078 22.5895 128.24 22.3924 128.475 22.2411C128.709 22.0898 128.973 22.0142 129.267 22.0142C129.323 22.0142 129.392 22.0153 129.475 22.0174C129.558 22.0195 129.621 22.0227 129.663 22.027V22.794C129.638 22.7876 129.579 22.7781 129.488 22.7653C129.398 22.7504 129.303 22.7429 129.203 22.7429C128.965 22.7429 128.752 22.793 128.564 22.8931C128.379 22.9911 128.232 23.1275 128.123 23.3022C128.016 23.4748 127.963 23.6719 127.963 23.8935V27H127.209ZM132.002 27.1151C131.691 27.1151 131.409 27.0565 131.155 26.9393C130.902 26.82 130.7 26.6484 130.551 26.4247C130.402 26.1989 130.327 25.9261 130.327 25.6065C130.327 25.3253 130.383 25.0973 130.494 24.9226C130.604 24.7457 130.752 24.6072 130.938 24.5071C131.123 24.407 131.328 24.3324 131.551 24.2834C131.777 24.2322 132.004 24.1918 132.232 24.1619C132.531 24.1236 132.772 24.0948 132.958 24.0756C133.145 24.0543 133.282 24.0192 133.367 23.9702C133.454 23.9212 133.498 23.8359 133.498 23.7145V23.6889C133.498 23.3736 133.412 23.1286 133.239 22.9538C133.069 22.7791 132.81 22.6918 132.462 22.6918C132.102 22.6918 131.82 22.7706 131.615 22.9283C131.411 23.0859 131.267 23.2543 131.184 23.4332L130.468 23.1776C130.596 22.8793 130.766 22.647 130.979 22.4808C131.195 22.3125 131.429 22.1953 131.683 22.1293C131.938 22.0611 132.19 22.027 132.437 22.027C132.594 22.027 132.776 22.0462 132.98 22.0845C133.187 22.1207 133.386 22.1964 133.578 22.3114C133.772 22.4265 133.933 22.6001 134.06 22.8324C134.188 23.0646 134.252 23.3757 134.252 23.7656V27H133.498V26.3352H133.46C133.408 26.4418 133.323 26.5558 133.204 26.6772C133.085 26.7987 132.926 26.902 132.728 26.9872C132.529 27.0724 132.288 27.1151 132.002 27.1151ZM132.117 26.4375C132.415 26.4375 132.667 26.3789 132.871 26.2617C133.078 26.1445 133.234 25.9933 133.338 25.8079C133.445 25.6225 133.498 25.4276 133.498 25.223V24.5327C133.466 24.571 133.396 24.6062 133.287 24.6381C133.18 24.668 133.057 24.6946 132.916 24.718C132.778 24.7393 132.642 24.7585 132.51 24.7756C132.38 24.7905 132.275 24.8033 132.194 24.8139C131.998 24.8395 131.815 24.881 131.644 24.9386C131.476 24.994 131.339 25.0781 131.235 25.1911C131.133 25.3018 131.082 25.4531 131.082 25.6449C131.082 25.907 131.179 26.1051 131.373 26.2393C131.569 26.3714 131.817 26.4375 132.117 26.4375ZM137.764 22.0909V22.7301H135.22V22.0909H137.764ZM135.961 20.9148H136.715V25.5938C136.715 25.8068 136.746 25.9666 136.808 26.0732C136.872 26.1776 136.953 26.2479 137.051 26.2841C137.151 26.3182 137.257 26.3352 137.367 26.3352C137.451 26.3352 137.519 26.331 137.572 26.3224C137.625 26.3118 137.668 26.3033 137.7 26.2969L137.853 26.9744C137.802 26.9936 137.731 27.0128 137.639 27.032C137.547 27.0533 137.431 27.0639 137.291 27.0639C137.078 27.0639 136.869 27.0181 136.664 26.9265C136.462 26.8349 136.294 26.6953 136.159 26.5078C136.027 26.3203 135.961 26.0838 135.961 25.7983V20.9148ZM140.84 27.1023C140.397 27.1023 140.008 26.9968 139.673 26.7859C139.341 26.5749 139.081 26.2798 138.894 25.9006C138.708 25.5213 138.616 25.0781 138.616 24.571C138.616 24.0597 138.708 23.6133 138.894 23.2319C139.081 22.8505 139.341 22.5543 139.673 22.3434C140.008 22.1325 140.397 22.027 140.84 22.027C141.283 22.027 141.671 22.1325 142.003 22.3434C142.338 22.5543 142.598 22.8505 142.783 23.2319C142.971 23.6133 143.064 24.0597 143.064 24.571C143.064 25.0781 142.971 25.5213 142.783 25.9006C142.598 26.2798 142.338 26.5749 142.003 26.7859C141.671 26.9968 141.283 27.1023 140.84 27.1023ZM140.84 26.4247C141.177 26.4247 141.454 26.3384 141.671 26.1658C141.888 25.9933 142.049 25.7663 142.153 25.4851C142.258 25.2038 142.31 24.8991 142.31 24.571C142.31 24.2429 142.258 23.9371 142.153 23.6538C142.049 23.3704 141.888 23.1413 141.671 22.9666C141.454 22.7919 141.177 22.7045 140.84 22.7045C140.503 22.7045 140.226 22.7919 140.009 22.9666C139.792 23.1413 139.631 23.3704 139.526 23.6538C139.422 23.9371 139.37 24.2429 139.37 24.571C139.37 24.8991 139.422 25.2038 139.526 25.4851C139.631 25.7663 139.792 25.9933 140.009 26.1658C140.226 26.3384 140.503 26.4247 140.84 26.4247ZM144.216 27V22.0909H144.944V22.8324H144.996C145.085 22.5895 145.247 22.3924 145.481 22.2411C145.716 22.0898 145.98 22.0142 146.274 22.0142C146.329 22.0142 146.399 22.0153 146.482 22.0174C146.565 22.0195 146.628 22.0227 146.67 22.027V22.794C146.645 22.7876 146.586 22.7781 146.494 22.7653C146.405 22.7504 146.31 22.7429 146.21 22.7429C145.971 22.7429 145.758 22.793 145.571 22.8931C145.385 22.9911 145.238 23.1275 145.13 23.3022C145.023 23.4748 144.97 23.6719 144.97 23.8935V27H144.216ZM149.009 27.1151C148.698 27.1151 148.416 27.0565 148.162 26.9393C147.908 26.82 147.707 26.6484 147.558 26.4247C147.409 26.1989 147.334 25.9261 147.334 25.6065C147.334 25.3253 147.39 25.0973 147.5 24.9226C147.611 24.7457 147.759 24.6072 147.945 24.5071C148.13 24.407 148.335 24.3324 148.558 24.2834C148.784 24.2322 149.011 24.1918 149.239 24.1619C149.537 24.1236 149.779 24.0948 149.965 24.0756C150.152 24.0543 150.288 24.0192 150.374 23.9702C150.461 23.9212 150.505 23.8359 150.505 23.7145V23.6889C150.505 23.3736 150.418 23.1286 150.246 22.9538C150.075 22.7791 149.816 22.6918 149.469 22.6918C149.109 22.6918 148.827 22.7706 148.622 22.9283C148.418 23.0859 148.274 23.2543 148.191 23.4332L147.475 23.1776C147.603 22.8793 147.773 22.647 147.986 22.4808C148.201 22.3125 148.436 22.1953 148.689 22.1293C148.945 22.0611 149.196 22.027 149.444 22.027C149.601 22.027 149.782 22.0462 149.987 22.0845C150.194 22.1207 150.393 22.1964 150.585 22.3114C150.778 22.4265 150.939 22.6001 151.067 22.8324C151.195 23.0646 151.259 23.3757 151.259 23.7656V27H150.505V26.3352H150.466C150.415 26.4418 150.33 26.5558 150.211 26.6772C150.091 26.7987 149.933 26.902 149.734 26.9872C149.536 27.0724 149.294 27.1151 149.009 27.1151ZM149.124 26.4375C149.422 26.4375 149.674 26.3789 149.878 26.2617C150.085 26.1445 150.241 25.9933 150.345 25.8079C150.451 25.6225 150.505 25.4276 150.505 25.223V24.5327C150.473 24.571 150.402 24.6062 150.294 24.6381C150.187 24.668 150.064 24.6946 149.923 24.718C149.785 24.7393 149.649 24.7585 149.517 24.7756C149.387 24.7905 149.282 24.8033 149.201 24.8139C149.005 24.8395 148.821 24.881 148.651 24.9386C148.483 24.994 148.346 25.0781 148.242 25.1911C148.14 25.3018 148.089 25.4531 148.089 25.6449C148.089 25.907 148.185 26.1051 148.379 26.2393C148.575 26.3714 148.824 26.4375 149.124 26.4375Z" fill="black"/>
<defs>
<clipPath id="clip0_222_244">
<rect width="30" height="30" rx="3" fill="white"/>
</clipPath>
</defs>
</svg>
