<svg width="121" height="30" viewBox="0 0 121 30" fill="none" xmlns="http://www.w3.org/2000/svg">
<g clip-path="url(#clip0_115_208)">
<rect width="30" height="30" rx="3" fill="#FD5959"/>
<path d="M16.5646 6.00012V29.7274M16.5646 6.00012L9.71211 7.46828V32.5L20.5 33L20.7608 8.69169L16.5646 6.00012ZM21.2296 11.1386L22.8744 12.1832L24.5193 13.2278C24.5889 18.5273 24.6062 28.2001 24.6515 33.5M9.71211 10.3941L4 12.1832V34.4424" stroke="white" stroke-width="1.68047" stroke-linecap="round" stroke-linejoin="round"/>
<path d="M16.303 6L20.6969 8.63636L21.5757 35H16.303V6Z" fill="white"/>
<path d="M21 11L25 13.4V35H21V11Z" fill="white"/>
</g>
<path d="M38.4001 22V12.1818H40.9953V13.9141H41.1104C41.3149 13.3388 41.6558 12.8849 42.1331 12.5526C42.6104 12.2202 43.1814 12.054 43.8461 12.054C44.5194 12.054 45.0926 12.2223 45.5656 12.5589C46.0386 12.8913 46.354 13.343 46.5116 13.9141H46.6139C46.8142 13.3516 47.1764 12.902 47.7006 12.5653C48.229 12.2244 48.8532 12.054 49.5734 12.054C50.4896 12.054 51.2332 12.3459 51.8042 12.9297C52.3795 13.5092 52.6672 14.3317 52.6672 15.397V22H49.9506V15.9339C49.9506 15.3885 49.8057 14.9794 49.5159 14.7067C49.2261 14.4339 48.8639 14.2976 48.4292 14.2976C47.9349 14.2976 47.5493 14.4553 47.2723 14.7706C46.9953 15.0817 46.8568 15.4929 46.8568 16.0043V22H44.2169V15.8764C44.2169 15.3949 44.0784 15.0114 43.8014 14.7259C43.5287 14.4403 43.1686 14.2976 42.7211 14.2976C42.4186 14.2976 42.1459 14.3743 41.903 14.5277C41.6643 14.6768 41.4747 14.8878 41.3341 15.1605C41.1934 15.429 41.1231 15.7443 41.1231 16.1065V22H38.4001ZM66.8991 15.4545C66.8991 16.8821 66.6285 18.0966 66.0873 19.098C65.5503 20.0994 64.8174 20.8643 63.8884 21.3928C62.9637 21.9169 61.9239 22.179 60.7691 22.179C59.6057 22.179 58.5617 21.9148 57.637 21.3864C56.7123 20.858 55.9814 20.093 55.4445 19.0916C54.9076 18.0902 54.6391 16.8778 54.6391 15.4545C54.6391 14.027 54.9076 12.8125 55.4445 11.8111C55.9814 10.8097 56.7123 10.0469 57.637 9.52273C58.5617 8.99432 59.6057 8.73011 60.7691 8.73011C61.9239 8.73011 62.9637 8.99432 63.8884 9.52273C64.8174 10.0469 65.5503 10.8097 66.0873 11.8111C66.6285 12.8125 66.8991 14.027 66.8991 15.4545ZM64.093 15.4545C64.093 14.5298 63.9545 13.75 63.6775 13.1151C63.4047 12.4801 63.0191 11.9986 62.5205 11.6705C62.0219 11.3423 61.4381 11.1783 60.7691 11.1783C60.1001 11.1783 59.5162 11.3423 59.0177 11.6705C58.5191 11.9986 58.1313 12.4801 57.8543 13.1151C57.5816 13.75 57.4452 14.5298 57.4452 15.4545C57.4452 16.3793 57.5816 17.1591 57.8543 17.794C58.1313 18.429 58.5191 18.9105 59.0177 19.2386C59.5162 19.5668 60.1001 19.7308 60.7691 19.7308C61.4381 19.7308 62.0219 19.5668 62.5205 19.2386C63.0191 18.9105 63.4047 18.429 63.6775 17.794C63.9545 17.1591 64.093 16.3793 64.093 15.4545ZM77.0672 14.9815L74.5743 15.1349C74.5317 14.9219 74.4401 14.7301 74.2994 14.5597C74.1588 14.3849 73.9735 14.2464 73.7433 14.1442C73.5175 14.0376 73.2469 13.9844 72.9316 13.9844C72.5097 13.9844 72.1539 14.0739 71.8641 14.2528C71.5743 14.4276 71.4294 14.6619 71.4294 14.956C71.4294 15.1903 71.5232 15.3885 71.7107 15.5504C71.8982 15.7124 72.2199 15.8423 72.6759 15.9403L74.4529 16.2983C75.4074 16.4943 76.1191 16.8097 76.5878 17.2443C77.0566 17.679 77.2909 18.25 77.2909 18.9574C77.2909 19.6009 77.1013 20.1655 76.722 20.6513C76.347 21.1371 75.8314 21.5163 75.1752 21.7891C74.5232 22.0575 73.771 22.1918 72.9188 22.1918C71.6191 22.1918 70.5835 21.9212 69.8122 21.38C69.0452 20.8345 68.5956 20.093 68.4635 19.1555L71.1418 19.0149C71.2227 19.4112 71.4188 19.7138 71.7298 19.9226C72.0409 20.1271 72.4394 20.2294 72.9252 20.2294C73.4024 20.2294 73.786 20.1378 74.0757 19.9545C74.3698 19.767 74.5189 19.5263 74.5232 19.2322C74.5189 18.9851 74.4145 18.7827 74.21 18.625C74.0054 18.4631 73.6901 18.3395 73.2639 18.2543L71.5637 17.9155C70.6048 17.7237 69.8911 17.3913 69.4223 16.9183C68.9578 16.4453 68.7256 15.8423 68.7256 15.1094C68.7256 14.4787 68.896 13.9354 69.2369 13.4794C69.5821 13.0234 70.0658 12.6719 70.6879 12.4247C71.3144 12.1776 72.0473 12.054 72.8868 12.054C74.1269 12.054 75.1027 12.3161 75.8144 12.8402C76.5303 13.3643 76.9479 14.0781 77.0672 14.9815ZM79.0056 22V12.1818H81.7286V22H79.0056ZM80.3735 10.9162C79.9687 10.9162 79.6214 10.782 79.3316 10.5135C79.0461 10.2408 78.9033 9.91477 78.9033 9.53551C78.9033 9.16051 79.0461 8.83878 79.3316 8.57031C79.6214 8.29758 79.9687 8.16122 80.3735 8.16122C80.7783 8.16122 81.1235 8.29758 81.409 8.57031C81.6988 8.83878 81.8437 9.16051 81.8437 9.53551C81.8437 9.91477 81.6988 10.2408 81.409 10.5135C81.1235 10.782 80.7783 10.9162 80.3735 10.9162ZM88.3843 22.1918C87.3744 22.1918 86.5051 21.9872 85.7764 21.5781C85.0519 21.1648 84.4937 20.581 84.1017 19.8267C83.7096 19.0682 83.5136 18.1712 83.5136 17.1357C83.5136 16.1257 83.7096 15.2393 84.1017 14.4766C84.4937 13.7138 85.0455 13.1193 85.7572 12.6932C86.4731 12.267 87.3126 12.054 88.2757 12.054C88.9234 12.054 89.5264 12.1584 90.0846 12.3672C90.6471 12.5717 91.1372 12.8807 91.5548 13.294C91.9767 13.7074 92.3048 14.2273 92.5392 14.8537C92.7735 15.4759 92.8907 16.2045 92.8907 17.0398V17.7876H84.6002V16.1001H90.3275C90.3275 15.7081 90.2423 15.3608 90.0718 15.0582C89.9014 14.7557 89.6649 14.5192 89.3623 14.3487C89.064 14.174 88.7167 14.0866 88.3204 14.0866C87.907 14.0866 87.5406 14.1825 87.221 14.3743C86.9056 14.5618 86.6585 14.8153 86.4795 15.1349C86.3005 15.4503 86.2089 15.8018 86.2046 16.1896V17.794C86.2046 18.2798 86.2941 18.6996 86.4731 19.0533C86.6563 19.407 86.9142 19.6797 87.2465 19.8714C87.5789 20.0632 87.9731 20.1591 88.4291 20.1591C88.7316 20.1591 89.0086 20.1165 89.26 20.0312C89.5115 19.946 89.7267 19.8182 89.9056 19.6477C90.0846 19.4773 90.221 19.2685 90.3147 19.0213L92.8332 19.1875C92.7053 19.7926 92.4433 20.321 92.047 20.7727C91.6549 21.2202 91.1478 21.5696 90.5257 21.821C89.9078 22.0682 89.194 22.1918 88.3843 22.1918ZM98.2856 22.1598C97.5399 22.1598 96.8644 21.968 96.2593 21.5845C95.6585 21.1967 95.1812 20.6278 94.8275 19.8778C94.4781 19.1236 94.3034 18.1989 94.3034 17.1037C94.3034 15.9787 94.4845 15.0433 94.8467 14.2976C95.2089 13.5476 95.6904 12.9872 96.2913 12.6165C96.8964 12.2415 97.559 12.054 98.2792 12.054C98.8289 12.054 99.287 12.1477 99.6535 12.3352C100.024 12.5185 100.323 12.7486 100.548 13.0256C100.778 13.2983 100.953 13.5668 101.073 13.831H101.156V8.90909H103.872V22H101.188V20.4276H101.073C100.945 20.7003 100.764 20.9709 100.529 21.2393C100.299 21.5036 99.9987 21.723 99.6279 21.8977C99.2615 22.0724 98.814 22.1598 98.2856 22.1598ZM99.1485 19.9929C99.5874 19.9929 99.9582 19.8736 100.261 19.6349C100.568 19.392 100.802 19.0533 100.964 18.6186C101.13 18.1839 101.213 17.6747 101.213 17.0909C101.213 16.5071 101.132 16 100.97 15.5696C100.808 15.1392 100.574 14.8068 100.267 14.5724C99.9603 14.3381 99.5874 14.2209 99.1485 14.2209C98.7011 14.2209 98.324 14.3423 98.0171 14.5852C97.7103 14.8281 97.4781 15.1648 97.3204 15.5952C97.1627 16.0256 97.0839 16.5241 97.0839 17.0909C97.0839 17.6619 97.1627 18.1669 97.3204 18.6058C97.4823 19.0405 97.7146 19.3814 98.0171 19.6286C98.324 19.8714 98.7011 19.9929 99.1485 19.9929ZM108.834 8.90909V22H106.111V8.90909H108.834ZM115.49 22.1918C114.48 22.1918 113.611 21.9872 112.882 21.5781C112.157 21.1648 111.599 20.581 111.207 19.8267C110.815 19.0682 110.619 18.1712 110.619 17.1357C110.619 16.1257 110.815 15.2393 111.207 14.4766C111.599 13.7138 112.151 13.1193 112.863 12.6932C113.579 12.267 114.418 12.054 115.381 12.054C116.029 12.054 116.632 12.1584 117.19 12.3672C117.753 12.5717 118.243 12.8807 118.66 13.294C119.082 13.7074 119.41 14.2273 119.645 14.8537C119.879 15.4759 119.996 16.2045 119.996 17.0398V17.7876H111.706V16.1001H117.433C117.433 15.7081 117.348 15.3608 117.177 15.0582C117.007 14.7557 116.77 14.5192 116.468 14.3487C116.169 14.174 115.822 14.0866 115.426 14.0866C115.013 14.0866 114.646 14.1825 114.326 14.3743C114.011 14.5618 113.764 14.8153 113.585 15.1349C113.406 15.4503 113.314 15.8018 113.31 16.1896V17.794C113.31 18.2798 113.4 18.6996 113.579 19.0533C113.762 19.407 114.02 19.6797 114.352 19.8714C114.684 20.0632 115.079 20.1591 115.535 20.1591C115.837 20.1591 116.114 20.1165 116.366 20.0312C116.617 19.946 116.832 19.8182 117.011 19.6477C117.19 19.4773 117.326 19.2685 117.42 19.0213L119.939 19.1875C119.811 19.7926 119.549 20.321 119.152 20.7727C118.76 21.2202 118.253 21.5696 117.631 21.821C117.013 22.0682 116.299 22.1918 115.49 22.1918Z" fill="black"/>
<defs>
<clipPath id="clip0_115_208">
<rect width="30" height="30" rx="3" fill="white"/>
</clipPath>
</defs>
</svg>
