<svg width="121" height="30" viewBox="0 0 121 30" fill="none" xmlns="http://www.w3.org/2000/svg">
<g clip-path="url(#clip0_226_260)">
<rect width="30" height="30" rx="3" fill="#FD5959"/>
<path d="M16.5646 6.00012V29.7274M16.5646 6.00012L9.71211 7.46828V32.5L20.5 33L20.7608 8.69169L16.5646 6.00012ZM21.2296 11.1386L22.8744 12.1832L24.5193 13.2278C24.5889 18.5273 24.6062 28.2001 24.6515 33.5M9.71211 10.3941L4 12.1832V34.4424" stroke="white" stroke-width="1.68047" stroke-linecap="round" stroke-linejoin="round"/>
<path d="M16.303 6L20.6969 8.63636L21.5757 35H16.303V6Z" fill="white"/>
<path d="M21 11L25 13.4V35H21V11Z" fill="white"/>
</g>
<path d="M38.4001 16V6.18182H40.9953V7.91406H41.1104C41.3149 7.33878 41.6558 6.88494 42.1331 6.55256C42.6104 6.22017 43.1814 6.05398 43.8461 6.05398C44.5194 6.05398 45.0926 6.2223 45.5656 6.55895C46.0386 6.89133 46.354 7.34304 46.5116 7.91406H46.6139C46.8142 7.35156 47.1764 6.90199 47.7006 6.56534C48.229 6.22443 48.8532 6.05398 49.5734 6.05398C50.4896 6.05398 51.2332 6.34588 51.8042 6.92969C52.3795 7.50923 52.6672 8.33168 52.6672 9.39702V16H49.9506V9.93395C49.9506 9.38849 49.8057 8.9794 49.5159 8.70668C49.2261 8.43395 48.8639 8.29759 48.4292 8.29759C47.9349 8.29759 47.5493 8.45526 47.2723 8.7706C46.9953 9.08168 46.8568 9.4929 46.8568 10.0043V16H44.2169V9.87642C44.2169 9.39489 44.0784 9.01136 43.8014 8.72585C43.5287 8.44034 43.1686 8.29759 42.7211 8.29759C42.4186 8.29759 42.1459 8.37429 41.903 8.5277C41.6643 8.67685 41.4747 8.88778 41.3341 9.16051C41.1934 9.42898 41.1231 9.74432 41.1231 10.1065V16H38.4001ZM66.8991 9.45455C66.8991 10.8821 66.6285 12.0966 66.0873 13.098C65.5503 14.0994 64.8174 14.8643 63.8884 15.3928C62.9637 15.9169 61.9239 16.179 60.7691 16.179C59.6057 16.179 58.5617 15.9148 57.637 15.3864C56.7123 14.858 55.9814 14.093 55.4445 13.0916C54.9076 12.0902 54.6391 10.8778 54.6391 9.45455C54.6391 8.02699 54.9076 6.8125 55.4445 5.81108C55.9814 4.80966 56.7123 4.04687 57.637 3.52273C58.5617 2.99432 59.6057 2.73011 60.7691 2.73011C61.9239 2.73011 62.9637 2.99432 63.8884 3.52273C64.8174 4.04687 65.5503 4.80966 66.0873 5.81108C66.6285 6.8125 66.8991 8.02699 66.8991 9.45455ZM64.093 9.45455C64.093 8.52983 63.9545 7.75 63.6775 7.11506C63.4047 6.48011 63.0191 5.99858 62.5205 5.67045C62.0219 5.34233 61.4381 5.17827 60.7691 5.17827C60.1001 5.17827 59.5162 5.34233 59.0177 5.67045C58.5191 5.99858 58.1313 6.48011 57.8543 7.11506C57.5816 7.75 57.4452 8.52983 57.4452 9.45455C57.4452 10.3793 57.5816 11.1591 57.8543 11.794C58.1313 12.429 58.5191 12.9105 59.0177 13.2386C59.5162 13.5668 60.1001 13.7308 60.7691 13.7308C61.4381 13.7308 62.0219 13.5668 62.5205 13.2386C63.0191 12.9105 63.4047 12.429 63.6775 11.794C63.9545 11.1591 64.093 10.3793 64.093 9.45455ZM77.0672 8.98153L74.5743 9.13494C74.5317 8.92187 74.4401 8.73011 74.2994 8.55966C74.1588 8.38494 73.9735 8.24645 73.7433 8.14418C73.5175 8.03764 73.2469 7.98438 72.9316 7.98438C72.5097 7.98438 72.1539 8.07386 71.8641 8.25284C71.5743 8.42756 71.4294 8.66193 71.4294 8.95597C71.4294 9.19034 71.5232 9.38849 71.7107 9.55043C71.8982 9.71236 72.2199 9.84233 72.6759 9.94034L74.4529 10.2983C75.4074 10.4943 76.1191 10.8097 76.5878 11.2443C77.0566 11.679 77.2909 12.25 77.2909 12.9574C77.2909 13.6009 77.1013 14.1655 76.722 14.6513C76.347 15.1371 75.8314 15.5163 75.1752 15.7891C74.5232 16.0575 73.771 16.1918 72.9188 16.1918C71.6191 16.1918 70.5835 15.9212 69.8122 15.38C69.0452 14.8345 68.5956 14.093 68.4635 13.1555L71.1418 13.0149C71.2227 13.4112 71.4188 13.7138 71.7298 13.9226C72.0409 14.1271 72.4394 14.2294 72.9252 14.2294C73.4024 14.2294 73.786 14.1378 74.0757 13.9545C74.3698 13.767 74.5189 13.5263 74.5232 13.2322C74.5189 12.9851 74.4145 12.7827 74.21 12.625C74.0054 12.4631 73.6901 12.3395 73.2639 12.2543L71.5637 11.9155C70.6048 11.7237 69.8911 11.3913 69.4223 10.9183C68.9578 10.4453 68.7256 9.84233 68.7256 9.10938C68.7256 8.47869 68.896 7.93537 69.2369 7.4794C69.5821 7.02344 70.0658 6.67188 70.6879 6.42472C71.3144 6.17756 72.0473 6.05398 72.8868 6.05398C74.1269 6.05398 75.1027 6.31605 75.8144 6.8402C76.5303 7.36435 76.9479 8.07812 77.0672 8.98153ZM79.0056 16V6.18182H81.7286V16H79.0056ZM80.3735 4.91619C79.9687 4.91619 79.6214 4.78196 79.3316 4.51349C79.0461 4.24077 78.9033 3.91477 78.9033 3.53551C78.9033 3.16051 79.0461 2.83878 79.3316 2.57031C79.6214 2.29758 79.9687 2.16122 80.3735 2.16122C80.7783 2.16122 81.1235 2.29758 81.409 2.57031C81.6988 2.83878 81.8437 3.16051 81.8437 3.53551C81.8437 3.91477 81.6988 4.24077 81.409 4.51349C81.1235 4.78196 80.7783 4.91619 80.3735 4.91619ZM88.3843 16.1918C87.3744 16.1918 86.5051 15.9872 85.7764 15.5781C85.0519 15.1648 84.4937 14.581 84.1017 13.8267C83.7096 13.0682 83.5136 12.1712 83.5136 11.1357C83.5136 10.1257 83.7096 9.23935 84.1017 8.47656C84.4937 7.71378 85.0455 7.11932 85.7572 6.69318C86.4731 6.26705 87.3126 6.05398 88.2757 6.05398C88.9234 6.05398 89.5264 6.15838 90.0846 6.36719C90.6471 6.57173 91.1372 6.88068 91.5548 7.29403C91.9767 7.70739 92.3048 8.22727 92.5392 8.85369C92.7735 9.47585 92.8907 10.2045 92.8907 11.0398V11.7876H84.6002V10.1001H90.3275C90.3275 9.7081 90.2423 9.3608 90.0718 9.05824C89.9014 8.75568 89.6649 8.51918 89.3623 8.34872C89.064 8.17401 88.7167 8.08665 88.3204 8.08665C87.907 8.08665 87.5406 8.18253 87.221 8.37429C86.9056 8.56179 86.6585 8.81534 86.4795 9.13494C86.3005 9.45028 86.2089 9.80185 86.2046 10.1896V11.794C86.2046 12.2798 86.2941 12.6996 86.4731 13.0533C86.6563 13.407 86.9142 13.6797 87.2465 13.8714C87.5789 14.0632 87.9731 14.1591 88.4291 14.1591C88.7316 14.1591 89.0086 14.1165 89.26 14.0312C89.5115 13.946 89.7267 13.8182 89.9056 13.6477C90.0846 13.4773 90.221 13.2685 90.3147 13.0213L92.8332 13.1875C92.7053 13.7926 92.4433 14.321 92.047 14.7727C91.6549 15.2202 91.1478 15.5696 90.5257 15.821C89.9078 16.0682 89.194 16.1918 88.3843 16.1918ZM98.2856 16.1598C97.5399 16.1598 96.8644 15.968 96.2593 15.5845C95.6585 15.1967 95.1812 14.6278 94.8275 13.8778C94.4781 13.1236 94.3034 12.1989 94.3034 11.1037C94.3034 9.97869 94.4845 9.04332 94.8467 8.29759C95.2089 7.54759 95.6904 6.98722 96.2913 6.61648C96.8964 6.24148 97.559 6.05398 98.2792 6.05398C98.8289 6.05398 99.287 6.14773 99.6535 6.33523C100.024 6.51847 100.323 6.74858 100.548 7.02557C100.778 7.2983 100.953 7.56676 101.073 7.83097H101.156V2.90909H103.872V16H101.188V14.4276H101.073C100.945 14.7003 100.764 14.9709 100.529 15.2393C100.299 15.5036 99.9987 15.723 99.6279 15.8977C99.2615 16.0724 98.814 16.1598 98.2856 16.1598ZM99.1485 13.9929C99.5874 13.9929 99.9582 13.8736 100.261 13.6349C100.568 13.392 100.802 13.0533 100.964 12.6186C101.13 12.1839 101.213 11.6747 101.213 11.0909C101.213 10.5071 101.132 10 100.97 9.5696C100.808 9.1392 100.574 8.80682 100.267 8.57244C99.9603 8.33807 99.5874 8.22088 99.1485 8.22088C98.7011 8.22088 98.324 8.34233 98.0171 8.58523C97.7103 8.82812 97.4781 9.16477 97.3204 9.59517C97.1627 10.0256 97.0839 10.5241 97.0839 11.0909C97.0839 11.6619 97.1627 12.1669 97.3204 12.6058C97.4823 13.0405 97.7146 13.3814 98.0171 13.6286C98.324 13.8714 98.7011 13.9929 99.1485 13.9929ZM108.834 2.90909V16H106.111V2.90909H108.834ZM115.49 16.1918C114.48 16.1918 113.611 15.9872 112.882 15.5781C112.157 15.1648 111.599 14.581 111.207 13.8267C110.815 13.0682 110.619 12.1712 110.619 11.1357C110.619 10.1257 110.815 9.23935 111.207 8.47656C111.599 7.71378 112.151 7.11932 112.863 6.69318C113.579 6.26705 114.418 6.05398 115.381 6.05398C116.029 6.05398 116.632 6.15838 117.19 6.36719C117.753 6.57173 118.243 6.88068 118.66 7.29403C119.082 7.70739 119.41 8.22727 119.645 8.85369C119.879 9.47585 119.996 10.2045 119.996 11.0398V11.7876H111.706V10.1001H117.433C117.433 9.7081 117.348 9.3608 117.177 9.05824C117.007 8.75568 116.77 8.51918 116.468 8.34872C116.169 8.17401 115.822 8.08665 115.426 8.08665C115.013 8.08665 114.646 8.18253 114.326 8.37429C114.011 8.56179 113.764 8.81534 113.585 9.13494C113.406 9.45028 113.314 9.80185 113.31 10.1896V11.794C113.31 12.2798 113.4 12.6996 113.579 13.0533C113.762 13.407 114.02 13.6797 114.352 13.8714C114.684 14.0632 115.079 14.1591 115.535 14.1591C115.837 14.1591 116.114 14.1165 116.366 14.0312C116.617 13.946 116.832 13.8182 117.011 13.6477C117.19 13.4773 117.326 13.2685 117.42 13.0213L119.939 13.1875C119.811 13.7926 119.549 14.321 119.152 14.7727C118.76 15.2202 118.253 15.5696 117.631 15.821C117.013 16.0682 116.299 16.1918 115.49 16.1918Z" fill="black"/>
<path d="M37.7978 28.8409V22.0909H38.5265V22.8707H38.6159C38.6713 22.7855 38.748 22.6768 38.8461 22.5447C38.9462 22.4105 39.089 22.2912 39.2743 22.1868C39.4618 22.0803 39.7154 22.027 40.035 22.027C40.4483 22.027 40.8127 22.1303 41.128 22.337C41.4434 22.5437 41.6895 22.8366 41.8663 23.2159C42.0431 23.5952 42.1316 24.0426 42.1316 24.5582C42.1316 25.0781 42.0431 25.5288 41.8663 25.9102C41.6895 26.2894 41.4444 26.5835 41.1312 26.7923C40.818 26.9989 40.4569 27.1023 40.0478 27.1023C39.7324 27.1023 39.4799 27.0501 39.2903 26.9457C39.1007 26.8391 38.9547 26.7187 38.8525 26.5845C38.7502 26.4482 38.6713 26.3352 38.6159 26.2457H38.552V28.8409H37.7978ZM38.5392 24.5455C38.5392 24.9162 38.5936 25.2433 38.7022 25.5266C38.8109 25.8079 38.9696 26.0284 39.1784 26.1882C39.3873 26.3459 39.6429 26.4247 39.9455 26.4247C40.2608 26.4247 40.524 26.3416 40.7349 26.1754C40.948 26.0071 41.1078 25.7812 41.2143 25.4979C41.323 25.2124 41.3773 24.8949 41.3773 24.5455C41.3773 24.2003 41.324 23.8892 41.2175 23.6122C41.1131 23.3331 40.9544 23.1126 40.7413 22.9506C40.5304 22.7866 40.2651 22.7045 39.9455 22.7045C39.6387 22.7045 39.3809 22.7823 39.1721 22.9379C38.9632 23.0913 38.8056 23.3065 38.699 23.5835C38.5925 23.8583 38.5392 24.179 38.5392 24.5455ZM44.7267 27.1151C44.4157 27.1151 44.1333 27.0565 43.8798 26.9393C43.6262 26.82 43.4249 26.6484 43.2757 26.4247C43.1266 26.1989 43.052 25.9261 43.052 25.6065C43.052 25.3253 43.1074 25.0973 43.2182 24.9226C43.329 24.7457 43.4771 24.6072 43.6625 24.5071C43.8478 24.407 44.0524 24.3324 44.2761 24.2834C44.502 24.2322 44.7289 24.1918 44.9569 24.1619C45.2551 24.1236 45.497 24.0948 45.6824 24.0756C45.8699 24.0543 46.0062 24.0192 46.0914 23.9702C46.1788 23.9212 46.2225 23.8359 46.2225 23.7145V23.6889C46.2225 23.3736 46.1362 23.1286 45.9636 22.9538C45.7931 22.7791 45.5343 22.6918 45.187 22.6918C44.8269 22.6918 44.5446 22.7706 44.34 22.9283C44.1355 23.0859 43.9917 23.2543 43.9086 23.4332L43.1926 23.1776C43.3205 22.8793 43.4909 22.647 43.704 22.4808C43.9192 22.3125 44.1536 22.1953 44.4071 22.1293C44.6628 22.0611 44.9142 22.027 45.1614 22.027C45.3191 22.027 45.5002 22.0462 45.7047 22.0845C45.9114 22.1207 46.1106 22.1964 46.3024 22.3114C46.4963 22.4265 46.6571 22.6001 46.785 22.8324C46.9128 23.0646 46.9767 23.3757 46.9767 23.7656V27H46.2225V26.3352H46.1841C46.133 26.4418 46.0478 26.5558 45.9284 26.6772C45.8091 26.7987 45.6504 26.902 45.4522 26.9872C45.2541 27.0724 45.0123 27.1151 44.7267 27.1151ZM44.8418 26.4375C45.1401 26.4375 45.3915 26.3789 45.5961 26.2617C45.8027 26.1445 45.9583 25.9933 46.0627 25.8079C46.1692 25.6225 46.2225 25.4276 46.2225 25.223V24.5327C46.1905 24.571 46.1202 24.6062 46.0115 24.6381C45.905 24.668 45.7814 24.6946 45.6408 24.718C45.5023 24.7393 45.367 24.7585 45.2349 24.7756C45.1049 24.7905 44.9995 24.8033 44.9185 24.8139C44.7225 24.8395 44.5392 24.881 44.3688 24.9386C44.2005 24.994 44.0641 25.0781 43.9597 25.1911C43.8574 25.3018 43.8063 25.4531 43.8063 25.6449C43.8063 25.907 43.9032 26.1051 44.0971 26.2393C44.2931 26.3714 44.5414 26.4375 44.8418 26.4375ZM49.1077 24.0469V27H48.3534V22.0909H49.0821V22.858H49.146C49.2611 22.6087 49.4358 22.4084 49.6702 22.2571C49.9046 22.1037 50.2071 22.027 50.5779 22.027C50.9102 22.027 51.2011 22.0952 51.4504 22.2315C51.6997 22.3658 51.8936 22.5703 52.032 22.8452C52.1705 23.1179 52.2398 23.4631 52.2398 23.8807V27H51.4855V23.9318C51.4855 23.5462 51.3854 23.2457 51.1851 23.0305C50.9848 22.8132 50.71 22.7045 50.3605 22.7045C50.1198 22.7045 49.9046 22.7567 49.7149 22.8612C49.5274 22.9656 49.3794 23.1179 49.2707 23.3182C49.162 23.5185 49.1077 23.7614 49.1077 24.0469ZM55.6763 27.1023C55.2033 27.1023 54.7953 26.9979 54.4522 26.7891C54.1113 26.5781 53.8482 26.2841 53.6628 25.907C53.4796 25.5277 53.388 25.0866 53.388 24.5838C53.388 24.081 53.4796 23.6378 53.6628 23.2543C53.8482 22.8686 54.106 22.5682 54.4363 22.353C54.7686 22.1357 55.1564 22.027 55.5996 22.027C55.8553 22.027 56.1078 22.0696 56.3571 22.1548C56.6064 22.2401 56.8333 22.3786 57.0378 22.5703C57.2424 22.7599 57.4054 23.0114 57.5268 23.3246C57.6483 23.6378 57.709 24.0234 57.709 24.4815V24.8011H53.9249V24.1491H56.9419C56.9419 23.8722 56.8865 23.625 56.7757 23.4077C56.6671 23.1903 56.5115 23.0188 56.3091 22.8931C56.1088 22.7674 55.8723 22.7045 55.5996 22.7045C55.2992 22.7045 55.0392 22.7791 54.8198 22.9283C54.6025 23.0753 54.4352 23.267 54.318 23.5036C54.2008 23.7401 54.1422 23.9936 54.1422 24.2642V24.6989C54.1422 25.0696 54.2061 25.3839 54.334 25.6417C54.464 25.8974 54.644 26.0923 54.8741 26.2266C55.1042 26.3587 55.3716 26.4247 55.6763 26.4247C55.8745 26.4247 56.0534 26.397 56.2132 26.3416C56.3752 26.2841 56.5147 26.1989 56.6319 26.0859C56.7491 25.9709 56.8397 25.8281 56.9036 25.6577L57.6323 25.8622C57.5556 26.1094 57.4267 26.3267 57.2456 26.5142C57.0645 26.6996 56.8407 26.8445 56.5744 26.9489C56.3081 27.0511 56.0087 27.1023 55.6763 27.1023ZM59.6106 20.4545V27H58.8564V20.4545H59.6106ZM66.6171 24.9929V22.0909H67.3714V27H66.6171V26.169H66.566C66.4509 26.4183 66.2719 26.6303 66.029 26.805C65.7861 26.9776 65.4793 27.0639 65.1086 27.0639C64.8018 27.0639 64.529 26.9968 64.2904 26.8626C64.0518 26.7262 63.8643 26.5217 63.7279 26.2489C63.5915 25.9741 63.5233 25.6278 63.5233 25.2102V22.0909H64.2776V25.1591C64.2776 25.517 64.3778 25.8026 64.578 26.0156C64.7805 26.2287 65.0383 26.3352 65.3515 26.3352C65.539 26.3352 65.7297 26.2873 65.9236 26.1914C66.1196 26.0955 66.2836 25.9485 66.4157 25.7504C66.55 25.5522 66.6171 25.2997 66.6171 24.9929ZM68.6122 27V26.4247L71.3991 22.8452V22.794H68.7017V22.0909H72.3707V22.6918L69.6605 26.2457V26.2969H72.4602V27H68.6122ZM70.4915 21.2727C70.3445 21.2727 70.2177 21.2227 70.1112 21.1225C70.0067 21.0224 69.9545 20.902 69.9545 20.7614C69.9545 20.6207 70.0067 20.5004 70.1112 20.4002C70.2177 20.3001 70.3445 20.25 70.4915 20.25C70.6385 20.25 70.7642 20.3001 70.8686 20.4002C70.9751 20.5004 71.0284 20.6207 71.0284 20.7614C71.0284 20.902 70.9751 21.0224 70.8686 21.1225C70.7642 21.2227 70.6385 21.2727 70.4915 21.2727ZM74.1078 28.8409C73.9799 28.8409 73.8659 28.8303 73.7658 28.8089C73.6657 28.7898 73.5964 28.7706 73.5581 28.7514L73.7498 28.0866C73.9331 28.1335 74.095 28.1506 74.2356 28.1378C74.3762 28.125 74.5009 28.0621 74.6096 27.9492C74.7203 27.8384 74.8216 27.6584 74.9132 27.4091L75.0538 27.0256L73.2385 22.0909H74.0566L75.4118 26.0028H75.4629L76.818 22.0909H77.6362L75.5524 27.7159C75.4586 27.9695 75.3425 28.1793 75.204 28.3455C75.0655 28.5138 74.9047 28.6385 74.7214 28.7195C74.5403 28.8004 74.3358 28.8409 74.1078 28.8409ZM80.7667 22.0909V22.7301H78.2227V22.0909H80.7667ZM78.9641 20.9148H79.7184V25.5938C79.7184 25.8068 79.7493 25.9666 79.8111 26.0732C79.875 26.1776 79.956 26.2479 80.054 26.2841C80.1541 26.3182 80.2596 26.3352 80.3704 26.3352C80.4535 26.3352 80.5217 26.331 80.5749 26.3224C80.6282 26.3118 80.6708 26.3033 80.7028 26.2969L80.8562 26.9744C80.805 26.9936 80.7337 27.0128 80.642 27.032C80.5504 27.0533 80.4343 27.0639 80.2937 27.0639C80.0806 27.0639 79.8718 27.0181 79.6673 26.9265C79.4648 26.8349 79.2965 26.6953 79.1623 26.5078C79.0302 26.3203 78.9641 26.0838 78.9641 25.7983V20.9148ZM82.7099 25.2102L82.6971 24.277H82.8505L84.9982 22.0909H85.9315L83.6431 24.4048H83.5792L82.7099 25.2102ZM82.0067 27V20.4545H82.761V27H82.0067ZM85.1261 27L83.2085 24.571L83.7454 24.0469L86.0849 27H85.1261ZM88.6944 27.1023C88.2512 27.1023 87.8624 26.9968 87.5279 26.7859C87.1955 26.5749 86.9355 26.2798 86.748 25.9006C86.5627 25.5213 86.47 25.0781 86.47 24.571C86.47 24.0597 86.5627 23.6133 86.748 23.2319C86.9355 22.8505 87.1955 22.5543 87.5279 22.3434C87.8624 22.1325 88.2512 22.027 88.6944 22.027C89.1376 22.027 89.5254 22.1325 89.8578 22.3434C90.1923 22.5543 90.4522 22.8505 90.6376 23.2319C90.8251 23.6133 90.9189 24.0597 90.9189 24.571C90.9189 25.0781 90.8251 25.5213 90.6376 25.9006C90.4522 26.2798 90.1923 26.5749 89.8578 26.7859C89.5254 26.9968 89.1376 27.1023 88.6944 27.1023ZM88.6944 26.4247C89.0311 26.4247 89.3081 26.3384 89.5254 26.1658C89.7427 25.9933 89.9036 25.7663 90.008 25.4851C90.1124 25.2038 90.1646 24.8991 90.1646 24.571C90.1646 24.2429 90.1124 23.9371 90.008 23.6538C89.9036 23.3704 89.7427 23.1413 89.5254 22.9666C89.3081 22.7919 89.0311 22.7045 88.6944 22.7045C88.3578 22.7045 88.0808 22.7919 87.8635 22.9666C87.6461 23.1413 87.4853 23.3704 87.3809 23.6538C87.2765 23.9371 87.2243 24.2429 87.2243 24.571C87.2243 24.8991 87.2765 25.2038 87.3809 25.4851C87.4853 25.7663 87.6461 25.9933 87.8635 26.1658C88.0808 26.3384 88.3578 26.4247 88.6944 26.4247ZM93.0154 27L91.5197 22.0909H92.3123L93.3734 25.8494H93.4245L94.4728 22.0909H95.2782L96.3137 25.8366H96.3649L97.426 22.0909H98.2186L96.7228 27H95.9814L94.9075 23.2287H94.8308L93.7569 27H93.0154ZM99.97 24.0469V27H99.2157V22.0909H99.9444V22.858H100.008C100.123 22.6087 100.298 22.4084 100.532 22.2571C100.767 22.1037 101.069 22.027 101.44 22.027C101.773 22.027 102.063 22.0952 102.313 22.2315C102.562 22.3658 102.756 22.5703 102.894 22.8452C103.033 23.1179 103.102 23.4631 103.102 23.8807V27H102.348V23.9318C102.348 23.5462 102.248 23.2457 102.047 23.0305C101.847 22.8132 101.572 22.7045 101.223 22.7045C100.982 22.7045 100.767 22.7567 100.577 22.8612C100.39 22.9656 100.242 23.1179 100.133 23.3182C100.024 23.5185 99.97 23.7614 99.97 24.0469ZM104.48 27V22.0909H105.235V27H104.48ZM104.864 21.2727C104.717 21.2727 104.59 21.2227 104.484 21.1225C104.379 21.0224 104.327 20.902 104.327 20.7614C104.327 20.6207 104.379 20.5004 104.484 20.4002C104.59 20.3001 104.717 20.25 104.864 20.25C105.011 20.25 105.137 20.3001 105.241 20.4002C105.348 20.5004 105.401 20.6207 105.401 20.7614C105.401 20.902 105.348 21.0224 105.241 21.1225C105.137 21.2227 105.011 21.2727 104.864 21.2727ZM107.319 25.2102L107.306 24.277H107.46L109.608 22.0909H110.541L108.252 24.4048H108.189L107.319 25.2102ZM106.616 27V20.4545H107.37V27H106.616ZM109.735 27L107.818 24.571L108.355 24.0469L110.694 27H109.735ZM112.956 27.1151C112.645 27.1151 112.363 27.0565 112.109 26.9393C111.856 26.82 111.654 26.6484 111.505 26.4247C111.356 26.1989 111.282 25.9261 111.282 25.6065C111.282 25.3253 111.337 25.0973 111.448 24.9226C111.559 24.7457 111.707 24.6072 111.892 24.5071C112.077 24.407 112.282 24.3324 112.506 24.2834C112.731 24.2322 112.958 24.1918 113.186 24.1619C113.485 24.1236 113.726 24.0948 113.912 24.0756C114.099 24.0543 114.236 24.0192 114.321 23.9702C114.408 23.9212 114.452 23.8359 114.452 23.7145V23.6889C114.452 23.3736 114.366 23.1286 114.193 22.9538C114.023 22.7791 113.764 22.6918 113.416 22.6918C113.056 22.6918 112.774 22.7706 112.57 22.9283C112.365 23.0859 112.221 23.2543 112.138 23.4332L111.422 23.1776C111.55 22.8793 111.72 22.647 111.934 22.4808C112.149 22.3125 112.383 22.1953 112.637 22.1293C112.892 22.0611 113.144 22.027 113.391 22.027C113.549 22.027 113.73 22.0462 113.934 22.0845C114.141 22.1207 114.34 22.1964 114.532 22.3114C114.726 22.4265 114.887 22.6001 115.014 22.8324C115.142 23.0646 115.206 23.3757 115.206 23.7656V27H114.452V26.3352H114.414C114.362 26.4418 114.277 26.5558 114.158 26.6772C114.039 26.7987 113.88 26.902 113.682 26.9872C113.484 27.0724 113.242 27.1151 112.956 27.1151ZM113.071 26.4375C113.37 26.4375 113.621 26.3789 113.826 26.2617C114.032 26.1445 114.188 25.9933 114.292 25.8079C114.399 25.6225 114.452 25.4276 114.452 25.223V24.5327C114.42 24.571 114.35 24.6062 114.241 24.6381C114.134 24.668 114.011 24.6946 113.87 24.718C113.732 24.7393 113.597 24.7585 113.464 24.7756C113.334 24.7905 113.229 24.8033 113.148 24.8139C112.952 24.8395 112.769 24.881 112.598 24.9386C112.43 24.994 112.294 25.0781 112.189 25.1911C112.087 25.3018 112.036 25.4531 112.036 25.6449C112.036 25.907 112.133 26.1051 112.327 26.2393C112.523 26.3714 112.771 26.4375 113.071 26.4375Z" fill="black"/>
<defs>
<clipPath id="clip0_226_260">
<rect width="30" height="30" rx="3" fill="white"/>
</clipPath>
</defs>
</svg>
