<svg width="188" height="30" viewBox="0 0 188 30" fill="none" xmlns="http://www.w3.org/2000/svg">
<g clip-path="url(#clip0_223_252)">
<rect width="30" height="30" rx="3" fill="#FD5959"/>
<path d="M16.5646 6.00012V29.7274M16.5646 6.00012L9.71211 7.46828V32.5L20.5 33L20.7608 8.69169L16.5646 6.00012ZM21.2296 11.1386L22.8744 12.1832L24.5193 13.2278C24.5889 18.5273 24.6062 28.2001 24.6515 33.5M9.71211 10.3941L4 12.1832V34.4424" stroke="white" stroke-width="1.68047" stroke-linecap="round" stroke-linejoin="round"/>
<path d="M16.303 6L20.6969 8.63636L21.5757 35H16.303V6Z" fill="white"/>
<path d="M21 11L25 13.4V35H21V11Z" fill="white"/>
</g>
<path d="M38.4001 16V6.18182H40.9953V7.91406H41.1104C41.3149 7.33878 41.6558 6.88494 42.1331 6.55256C42.6104 6.22017 43.1814 6.05398 43.8461 6.05398C44.5194 6.05398 45.0926 6.2223 45.5656 6.55895C46.0386 6.89133 46.354 7.34304 46.5116 7.91406H46.6139C46.8142 7.35156 47.1764 6.90199 47.7006 6.56534C48.229 6.22443 48.8532 6.05398 49.5734 6.05398C50.4896 6.05398 51.2332 6.34588 51.8042 6.92969C52.3795 7.50923 52.6672 8.33168 52.6672 9.39702V16H49.9506V9.93395C49.9506 9.38849 49.8057 8.9794 49.5159 8.70668C49.2261 8.43395 48.8639 8.29759 48.4292 8.29759C47.9349 8.29759 47.5493 8.45526 47.2723 8.7706C46.9953 9.08168 46.8568 9.4929 46.8568 10.0043V16H44.2169V9.87642C44.2169 9.39489 44.0784 9.01136 43.8014 8.72585C43.5287 8.44034 43.1686 8.29759 42.7211 8.29759C42.4186 8.29759 42.1459 8.37429 41.903 8.5277C41.6643 8.67685 41.4747 8.88778 41.3341 9.16051C41.1934 9.42898 41.1231 9.74432 41.1231 10.1065V16H38.4001ZM66.8991 9.45455C66.8991 10.8821 66.6285 12.0966 66.0873 13.098C65.5503 14.0994 64.8174 14.8643 63.8884 15.3928C62.9637 15.9169 61.9239 16.179 60.7691 16.179C59.6057 16.179 58.5617 15.9148 57.637 15.3864C56.7123 14.858 55.9814 14.093 55.4445 13.0916C54.9076 12.0902 54.6391 10.8778 54.6391 9.45455C54.6391 8.02699 54.9076 6.8125 55.4445 5.81108C55.9814 4.80966 56.7123 4.04687 57.637 3.52273C58.5617 2.99432 59.6057 2.73011 60.7691 2.73011C61.9239 2.73011 62.9637 2.99432 63.8884 3.52273C64.8174 4.04687 65.5503 4.80966 66.0873 5.81108C66.6285 6.8125 66.8991 8.02699 66.8991 9.45455ZM64.093 9.45455C64.093 8.52983 63.9545 7.75 63.6775 7.11506C63.4047 6.48011 63.0191 5.99858 62.5205 5.67045C62.0219 5.34233 61.4381 5.17827 60.7691 5.17827C60.1001 5.17827 59.5162 5.34233 59.0177 5.67045C58.5191 5.99858 58.1313 6.48011 57.8543 7.11506C57.5816 7.75 57.4452 8.52983 57.4452 9.45455C57.4452 10.3793 57.5816 11.1591 57.8543 11.794C58.1313 12.429 58.5191 12.9105 59.0177 13.2386C59.5162 13.5668 60.1001 13.7308 60.7691 13.7308C61.4381 13.7308 62.0219 13.5668 62.5205 13.2386C63.0191 12.9105 63.4047 12.429 63.6775 11.794C63.9545 11.1591 64.093 10.3793 64.093 9.45455ZM77.0672 8.98153L74.5743 9.13494C74.5317 8.92187 74.4401 8.73011 74.2994 8.55966C74.1588 8.38494 73.9735 8.24645 73.7433 8.14418C73.5175 8.03764 73.2469 7.98438 72.9316 7.98438C72.5097 7.98438 72.1539 8.07386 71.8641 8.25284C71.5743 8.42756 71.4294 8.66193 71.4294 8.95597C71.4294 9.19034 71.5232 9.38849 71.7107 9.55043C71.8982 9.71236 72.2199 9.84233 72.6759 9.94034L74.4529 10.2983C75.4074 10.4943 76.1191 10.8097 76.5878 11.2443C77.0566 11.679 77.2909 12.25 77.2909 12.9574C77.2909 13.6009 77.1013 14.1655 76.722 14.6513C76.347 15.1371 75.8314 15.5163 75.1752 15.7891C74.5232 16.0575 73.771 16.1918 72.9188 16.1918C71.6191 16.1918 70.5835 15.9212 69.8122 15.38C69.0452 14.8345 68.5956 14.093 68.4635 13.1555L71.1418 13.0149C71.2227 13.4112 71.4188 13.7138 71.7298 13.9226C72.0409 14.1271 72.4394 14.2294 72.9252 14.2294C73.4024 14.2294 73.786 14.1378 74.0757 13.9545C74.3698 13.767 74.5189 13.5263 74.5232 13.2322C74.5189 12.9851 74.4145 12.7827 74.21 12.625C74.0054 12.4631 73.6901 12.3395 73.2639 12.2543L71.5637 11.9155C70.6048 11.7237 69.8911 11.3913 69.4223 10.9183C68.9578 10.4453 68.7256 9.84233 68.7256 9.10938C68.7256 8.47869 68.896 7.93537 69.2369 7.4794C69.5821 7.02344 70.0658 6.67188 70.6879 6.42472C71.3144 6.17756 72.0473 6.05398 72.8868 6.05398C74.1269 6.05398 75.1027 6.31605 75.8144 6.8402C76.5303 7.36435 76.9479 8.07812 77.0672 8.98153ZM79.0056 16V6.18182H81.7286V16H79.0056ZM80.3735 4.91619C79.9687 4.91619 79.6214 4.78196 79.3316 4.51349C79.0461 4.24077 78.9033 3.91477 78.9033 3.53551C78.9033 3.16051 79.0461 2.83878 79.3316 2.57031C79.6214 2.29758 79.9687 2.16122 80.3735 2.16122C80.7783 2.16122 81.1235 2.29758 81.409 2.57031C81.6988 2.83878 81.8437 3.16051 81.8437 3.53551C81.8437 3.91477 81.6988 4.24077 81.409 4.51349C81.1235 4.78196 80.7783 4.91619 80.3735 4.91619ZM88.3843 16.1918C87.3744 16.1918 86.5051 15.9872 85.7764 15.5781C85.0519 15.1648 84.4937 14.581 84.1017 13.8267C83.7096 13.0682 83.5136 12.1712 83.5136 11.1357C83.5136 10.1257 83.7096 9.23935 84.1017 8.47656C84.4937 7.71378 85.0455 7.11932 85.7572 6.69318C86.4731 6.26705 87.3126 6.05398 88.2757 6.05398C88.9234 6.05398 89.5264 6.15838 90.0846 6.36719C90.6471 6.57173 91.1372 6.88068 91.5548 7.29403C91.9767 7.70739 92.3048 8.22727 92.5392 8.85369C92.7735 9.47585 92.8907 10.2045 92.8907 11.0398V11.7876H84.6002V10.1001H90.3275C90.3275 9.7081 90.2423 9.3608 90.0718 9.05824C89.9014 8.75568 89.6649 8.51918 89.3623 8.34872C89.064 8.17401 88.7167 8.08665 88.3204 8.08665C87.907 8.08665 87.5406 8.18253 87.221 8.37429C86.9056 8.56179 86.6585 8.81534 86.4795 9.13494C86.3005 9.45028 86.2089 9.80185 86.2046 10.1896V11.794C86.2046 12.2798 86.2941 12.6996 86.4731 13.0533C86.6563 13.407 86.9142 13.6797 87.2465 13.8714C87.5789 14.0632 87.9731 14.1591 88.4291 14.1591C88.7316 14.1591 89.0086 14.1165 89.26 14.0312C89.5115 13.946 89.7267 13.8182 89.9056 13.6477C90.0846 13.4773 90.221 13.2685 90.3147 13.0213L92.8332 13.1875C92.7053 13.7926 92.4433 14.321 92.047 14.7727C91.6549 15.2202 91.1478 15.5696 90.5257 15.821C89.9078 16.0682 89.194 16.1918 88.3843 16.1918ZM98.2856 16.1598C97.5399 16.1598 96.8644 15.968 96.2593 15.5845C95.6585 15.1967 95.1812 14.6278 94.8275 13.8778C94.4781 13.1236 94.3034 12.1989 94.3034 11.1037C94.3034 9.97869 94.4845 9.04332 94.8467 8.29759C95.2089 7.54759 95.6904 6.98722 96.2913 6.61648C96.8964 6.24148 97.559 6.05398 98.2792 6.05398C98.8289 6.05398 99.287 6.14773 99.6535 6.33523C100.024 6.51847 100.323 6.74858 100.548 7.02557C100.778 7.2983 100.953 7.56676 101.073 7.83097H101.156V2.90909H103.872V16H101.188V14.4276H101.073C100.945 14.7003 100.764 14.9709 100.529 15.2393C100.299 15.5036 99.9987 15.723 99.6279 15.8977C99.2615 16.0724 98.814 16.1598 98.2856 16.1598ZM99.1485 13.9929C99.5874 13.9929 99.9582 13.8736 100.261 13.6349C100.568 13.392 100.802 13.0533 100.964 12.6186C101.13 12.1839 101.213 11.6747 101.213 11.0909C101.213 10.5071 101.132 10 100.97 9.5696C100.808 9.1392 100.574 8.80682 100.267 8.57244C99.9603 8.33807 99.5874 8.22088 99.1485 8.22088C98.7011 8.22088 98.324 8.34233 98.0171 8.58523C97.7103 8.82812 97.4781 9.16477 97.3204 9.59517C97.1627 10.0256 97.0839 10.5241 97.0839 11.0909C97.0839 11.6619 97.1627 12.1669 97.3204 12.6058C97.4823 13.0405 97.7146 13.3814 98.0171 13.6286C98.324 13.8714 98.7011 13.9929 99.1485 13.9929ZM108.834 2.90909V16H106.111V2.90909H108.834ZM115.49 16.1918C114.48 16.1918 113.611 15.9872 112.882 15.5781C112.157 15.1648 111.599 14.581 111.207 13.8267C110.815 13.0682 110.619 12.1712 110.619 11.1357C110.619 10.1257 110.815 9.23935 111.207 8.47656C111.599 7.71378 112.151 7.11932 112.863 6.69318C113.579 6.26705 114.418 6.05398 115.381 6.05398C116.029 6.05398 116.632 6.15838 117.19 6.36719C117.753 6.57173 118.243 6.88068 118.66 7.29403C119.082 7.70739 119.41 8.22727 119.645 8.85369C119.879 9.47585 119.996 10.2045 119.996 11.0398V11.7876H111.706V10.1001H117.433C117.433 9.7081 117.348 9.3608 117.177 9.05824C117.007 8.75568 116.77 8.51918 116.468 8.34872C116.169 8.17401 115.822 8.08665 115.426 8.08665C115.013 8.08665 114.646 8.18253 114.326 8.37429C114.011 8.56179 113.764 8.81534 113.585 9.13494C113.406 9.45028 113.314 9.80185 113.31 10.1896V11.794C113.31 12.2798 113.4 12.6996 113.579 13.0533C113.762 13.407 114.02 13.6797 114.352 13.8714C114.684 14.0632 115.079 14.1591 115.535 14.1591C115.837 14.1591 116.114 14.1165 116.366 14.0312C116.617 13.946 116.832 13.8182 117.011 13.6477C117.19 13.4773 117.326 13.2685 117.42 13.0213L119.939 13.1875C119.811 13.7926 119.549 14.321 119.152 14.7727C118.76 15.2202 118.253 15.5696 117.631 15.821C117.013 16.0682 116.299 16.1918 115.49 16.1918Z" fill="black"/>
<path d="M38.0395 28.8409V22.0909H38.7682V22.8707H38.8576C38.913 22.7855 38.9897 22.6768 39.0878 22.5447C39.1879 22.4105 39.3307 22.2912 39.516 22.1868C39.7035 22.0803 39.9571 22.027 40.2767 22.027C40.69 22.027 41.0544 22.1303 41.3697 22.337C41.6851 22.5437 41.9312 22.8366 42.108 23.2159C42.2848 23.5952 42.3733 24.0426 42.3733 24.5582C42.3733 25.0781 42.2848 25.5288 42.108 25.9102C41.9312 26.2894 41.6861 26.5835 41.3729 26.7923C41.0597 26.9989 40.6986 27.1023 40.2895 27.1023C39.9741 27.1023 39.7216 27.0501 39.532 26.9457C39.3424 26.8391 39.1964 26.7187 39.0941 26.5845C38.9919 26.4482 38.913 26.3352 38.8576 26.2457H38.7937V28.8409H38.0395ZM38.7809 24.5455C38.7809 24.9162 38.8353 25.2433 38.9439 25.5266C39.0526 25.8079 39.2113 26.0284 39.4201 26.1882C39.629 26.3459 39.8846 26.4247 40.1872 26.4247C40.5025 26.4247 40.7657 26.3416 40.9766 26.1754C41.1897 26.0071 41.3495 25.7812 41.456 25.4979C41.5647 25.2124 41.619 24.8949 41.619 24.5455C41.619 24.2003 41.5657 23.8892 41.4592 23.6122C41.3548 23.3331 41.1961 23.1126 40.983 22.9506C40.7721 22.7866 40.5068 22.7045 40.1872 22.7045C39.8804 22.7045 39.6226 22.7823 39.4138 22.9379C39.2049 23.0913 39.0473 23.3065 38.9407 23.5835C38.8342 23.8583 38.7809 24.179 38.7809 24.5455ZM44.9684 27.1151C44.6574 27.1151 44.375 27.0565 44.1215 26.9393C43.8679 26.82 43.6666 26.6484 43.5174 26.4247C43.3683 26.1989 43.2937 25.9261 43.2937 25.6065C43.2937 25.3253 43.3491 25.0973 43.4599 24.9226C43.5707 24.7457 43.7188 24.6072 43.9042 24.5071C44.0895 24.407 44.2941 24.3324 44.5178 24.2834C44.7437 24.2322 44.9706 24.1918 45.1986 24.1619C45.4968 24.1236 45.7387 24.0948 45.9241 24.0756C46.1116 24.0543 46.2479 24.0192 46.3331 23.9702C46.4205 23.9212 46.4642 23.8359 46.4642 23.7145V23.6889C46.4642 23.3736 46.3779 23.1286 46.2053 22.9538C46.0348 22.7791 45.776 22.6918 45.4287 22.6918C45.0686 22.6918 44.7863 22.7706 44.5817 22.9283C44.3772 23.0859 44.2334 23.2543 44.1503 23.4332L43.4343 23.1776C43.5622 22.8793 43.7326 22.647 43.9457 22.4808C44.1609 22.3125 44.3953 22.1953 44.6488 22.1293C44.9045 22.0611 45.1559 22.027 45.4031 22.027C45.5608 22.027 45.7419 22.0462 45.9464 22.0845C46.1531 22.1207 46.3523 22.1964 46.5441 22.3114C46.738 22.4265 46.8988 22.6001 47.0267 22.8324C47.1545 23.0646 47.2184 23.3757 47.2184 23.7656V27H46.4642V26.3352H46.4258C46.3747 26.4418 46.2895 26.5558 46.1701 26.6772C46.0508 26.7987 45.8921 26.902 45.6939 26.9872C45.4958 27.0724 45.254 27.1151 44.9684 27.1151ZM45.0835 26.4375C45.3818 26.4375 45.6332 26.3789 45.8378 26.2617C46.0444 26.1445 46.2 25.9933 46.3044 25.8079C46.4109 25.6225 46.4642 25.4276 46.4642 25.223V24.5327C46.4322 24.571 46.3619 24.6062 46.2532 24.6381C46.1467 24.668 46.0231 24.6946 45.8825 24.718C45.744 24.7393 45.6087 24.7585 45.4766 24.7756C45.3466 24.7905 45.2412 24.8033 45.1602 24.8139C44.9642 24.8395 44.7809 24.881 44.6105 24.9386C44.4422 24.994 44.3058 25.0781 44.2014 25.1911C44.0991 25.3018 44.048 25.4531 44.048 25.6449C44.048 25.907 44.1449 26.1051 44.3388 26.2393C44.5348 26.3714 44.7831 26.4375 45.0835 26.4375ZM49.3494 24.0469V27H48.5951V22.0909H49.3238V22.858H49.3877C49.5028 22.6087 49.6775 22.4084 49.9119 22.2571C50.1463 22.1037 50.4488 22.027 50.8196 22.027C51.1519 22.027 51.4428 22.0952 51.6921 22.2315C51.9414 22.3658 52.1353 22.5703 52.2737 22.8452C52.4122 23.1179 52.4815 23.4631 52.4815 23.8807V27H51.7272V23.9318C51.7272 23.5462 51.6271 23.2457 51.4268 23.0305C51.2265 22.8132 50.9517 22.7045 50.6022 22.7045C50.3615 22.7045 50.1463 22.7567 49.9566 22.8612C49.7691 22.9656 49.621 23.1179 49.5124 23.3182C49.4037 23.5185 49.3494 23.7614 49.3494 24.0469ZM55.918 27.1023C55.445 27.1023 55.037 26.9979 54.6939 26.7891C54.353 26.5781 54.0899 26.2841 53.9045 25.907C53.7213 25.5277 53.6297 25.0866 53.6297 24.5838C53.6297 24.081 53.7213 23.6378 53.9045 23.2543C54.0899 22.8686 54.3477 22.5682 54.678 22.353C55.0103 22.1357 55.3981 22.027 55.8413 22.027C56.097 22.027 56.3495 22.0696 56.5988 22.1548C56.8481 22.2401 57.075 22.3786 57.2795 22.5703C57.4841 22.7599 57.6471 23.0114 57.7685 23.3246C57.89 23.6378 57.9507 24.0234 57.9507 24.4815V24.8011H54.1666V24.1491H57.1836C57.1836 23.8722 57.1282 23.625 57.0174 23.4077C56.9088 23.1903 56.7532 23.0188 56.5508 22.8931C56.3505 22.7674 56.114 22.7045 55.8413 22.7045C55.5409 22.7045 55.2809 22.7791 55.0615 22.9283C54.8441 23.0753 54.6769 23.267 54.5597 23.5036C54.4425 23.7401 54.3839 23.9936 54.3839 24.2642V24.6989C54.3839 25.0696 54.4478 25.3839 54.5757 25.6417C54.7057 25.8974 54.8857 26.0923 55.1158 26.2266C55.3459 26.3587 55.6133 26.4247 55.918 26.4247C56.1162 26.4247 56.2951 26.397 56.4549 26.3416C56.6169 26.2841 56.7564 26.1989 56.8736 26.0859C56.9908 25.9709 57.0814 25.8281 57.1453 25.6577L57.874 25.8622C57.7973 26.1094 57.6684 26.3267 57.4873 26.5142C57.3062 26.6996 57.0824 26.8445 56.8161 26.9489C56.5498 27.0511 56.2504 27.1023 55.918 27.1023ZM59.8523 20.4545V27H59.0981V20.4545H59.8523ZM63.6244 27V26.4247L66.4114 22.8452V22.794H63.7139V22.0909H67.3829V22.6918L64.6727 26.2457V26.2969H67.4724V27H63.6244ZM70.5518 27.1023C70.0788 27.1023 69.6708 26.9979 69.3277 26.7891C68.9868 26.5781 68.7237 26.2841 68.5383 25.907C68.3551 25.5277 68.2634 25.0866 68.2634 24.5838C68.2634 24.081 68.3551 23.6378 68.5383 23.2543C68.7237 22.8686 68.9815 22.5682 69.3117 22.353C69.6441 22.1357 70.0319 22.027 70.4751 22.027C70.7308 22.027 70.9833 22.0696 71.2326 22.1548C71.4818 22.2401 71.7088 22.3786 71.9133 22.5703C72.1179 22.7599 72.2809 23.0114 72.4023 23.3246C72.5237 23.6378 72.5845 24.0234 72.5845 24.4815V24.8011H68.8004V24.1491H71.8174C71.8174 23.8722 71.762 23.625 71.6512 23.4077C71.5426 23.1903 71.387 23.0188 71.1846 22.8931C70.9843 22.7674 70.7478 22.7045 70.4751 22.7045C70.1747 22.7045 69.9147 22.7791 69.6953 22.9283C69.4779 23.0753 69.3107 23.267 69.1935 23.5036C69.0763 23.7401 69.0177 23.9936 69.0177 24.2642V24.6989C69.0177 25.0696 69.0816 25.3839 69.2095 25.6417C69.3394 25.8974 69.5195 26.0923 69.7496 26.2266C69.9797 26.3587 70.2471 26.4247 70.5518 26.4247C70.75 26.4247 70.9289 26.397 71.0887 26.3416C71.2507 26.2841 71.3902 26.1989 71.5074 26.0859C71.6246 25.9709 71.7152 25.8281 71.7791 25.6577L72.5078 25.8622C72.4311 26.1094 72.3022 26.3267 72.121 26.5142C71.9399 26.6996 71.7162 26.8445 71.4499 26.9489C71.1835 27.0511 70.8842 27.1023 70.5518 27.1023ZM74.8441 27L73.3483 22.0909H74.1409L75.202 25.8494H75.2532L76.3014 22.0909H77.1068L78.1424 25.8366H78.1935L79.2546 22.0909H80.0472L78.5514 27H77.81L76.7361 23.2287H76.6594L75.5855 27H74.8441ZM81.7986 24.0469V27H81.0443V22.0909H81.773V22.858H81.837C81.952 22.6087 82.1267 22.4084 82.3611 22.2571C82.5955 22.1037 82.898 22.027 83.2688 22.027C83.6012 22.027 83.892 22.0952 84.1413 22.2315C84.3906 22.3658 84.5845 22.5703 84.723 22.8452C84.8615 23.1179 84.9307 23.4631 84.9307 23.8807V27H84.1764V23.9318C84.1764 23.5462 84.0763 23.2457 83.876 23.0305C83.6757 22.8132 83.4009 22.7045 83.0514 22.7045C82.8107 22.7045 82.5955 22.7567 82.4059 22.8612C82.2184 22.9656 82.0703 23.1179 81.9616 23.3182C81.8529 23.5185 81.7986 23.7614 81.7986 24.0469ZM88.3672 27.1023C87.8942 27.1023 87.4862 26.9979 87.1432 26.7891C86.8022 26.5781 86.5391 26.2841 86.3537 25.907C86.1705 25.5277 86.0789 25.0866 86.0789 24.5838C86.0789 24.081 86.1705 23.6378 86.3537 23.2543C86.5391 22.8686 86.7969 22.5682 87.1272 22.353C87.4596 22.1357 87.8473 22.027 88.2905 22.027C88.5462 22.027 88.7987 22.0696 89.048 22.1548C89.2973 22.2401 89.5242 22.3786 89.7287 22.5703C89.9333 22.7599 90.0963 23.0114 90.2177 23.3246C90.3392 23.6378 90.3999 24.0234 90.3999 24.4815V24.8011H86.6158V24.1491H89.6329C89.6329 23.8722 89.5775 23.625 89.4667 23.4077C89.358 23.1903 89.2025 23.0188 89 22.8931C88.7998 22.7674 88.5633 22.7045 88.2905 22.7045C87.9901 22.7045 87.7302 22.7791 87.5107 22.9283C87.2934 23.0753 87.1261 23.267 87.0089 23.5036C86.8917 23.7401 86.8331 23.9936 86.8331 24.2642V24.6989C86.8331 25.0696 86.8971 25.3839 87.0249 25.6417C87.1549 25.8974 87.3349 26.0923 87.565 26.2266C87.7951 26.3587 88.0625 26.4247 88.3672 26.4247C88.5654 26.4247 88.7444 26.397 88.9042 26.3416C89.0661 26.2841 89.2057 26.1989 89.3228 26.0859C89.44 25.9709 89.5306 25.8281 89.5945 25.6577L90.3232 25.8622C90.2465 26.1094 90.1176 26.3267 89.9365 26.5142C89.7554 26.6996 89.5316 26.8445 89.2653 26.9489C88.999 27.0511 88.6996 27.1023 88.3672 27.1023ZM88.3928 28.9176C88.1307 28.9176 87.9134 28.8452 87.7408 28.7003C87.5704 28.5575 87.4851 28.3487 87.4851 28.0739C87.4851 27.9162 87.5235 27.7585 87.6002 27.6009C87.6769 27.4432 87.8005 27.2908 87.9709 27.1438C88.1414 26.9968 88.3672 26.8594 88.6485 26.7315L88.9937 27C88.8019 27.1406 88.6304 27.2898 88.4791 27.4474C88.3278 27.6051 88.2522 27.7798 88.2522 27.9716C88.2522 28.0675 88.2756 28.142 88.3225 28.1953C88.3694 28.2507 88.4567 28.2784 88.5846 28.2784C88.6804 28.2784 88.7657 28.2656 88.8402 28.2401C88.9148 28.2145 88.9745 28.1889 89.0192 28.1634L89.0704 28.7259C89 28.7706 88.9074 28.8132 88.7923 28.8537C88.6794 28.8963 88.5462 28.9176 88.3928 28.9176ZM93.6822 22.0909V22.7301H91.1382V22.0909H93.6822ZM91.8797 20.9148H92.6339V25.5938C92.6339 25.8068 92.6648 25.9666 92.7266 26.0732C92.7905 26.1776 92.8715 26.2479 92.9695 26.2841C93.0696 26.3182 93.1751 26.3352 93.2859 26.3352C93.369 26.3352 93.4372 26.331 93.4905 26.3224C93.5437 26.3118 93.5863 26.3033 93.6183 26.2969L93.7717 26.9744C93.7206 26.9936 93.6492 27.0128 93.5576 27.032C93.466 27.0533 93.3498 27.0639 93.2092 27.0639C92.9961 27.0639 92.7873 27.0181 92.5828 26.9265C92.3804 26.8349 92.212 26.6953 92.0778 26.5078C91.9457 26.3203 91.8797 26.0838 91.8797 25.7983V20.9148ZM94.8168 27V22.0909H95.5455V22.8324H95.5966C95.6861 22.5895 95.8481 22.3924 96.0824 22.2411C96.3168 22.0898 96.581 22.0142 96.875 22.0142C96.9304 22.0142 96.9997 22.0153 97.0828 22.0174C97.1659 22.0195 97.2287 22.0227 97.2714 22.027V22.794C97.2458 22.7876 97.1872 22.7781 97.0956 22.7653C97.0061 22.7504 96.9113 22.7429 96.8111 22.7429C96.5725 22.7429 96.3594 22.793 96.1719 22.8931C95.9866 22.9911 95.8395 23.1275 95.7309 23.3022C95.6243 23.4748 95.5711 23.6719 95.5711 23.8935V27H94.8168ZM98.0248 27V26.4247L100.812 22.8452V22.794H98.1143V22.0909H101.783V22.6918L99.0731 26.2457V26.2969H101.873V27H98.0248ZM103.789 24.0469V27H103.035V22.0909H103.763V22.858H103.827C103.942 22.6087 104.117 22.4084 104.351 22.2571C104.586 22.1037 104.888 22.027 105.259 22.027C105.591 22.027 105.882 22.0952 106.132 22.2315C106.381 22.3658 106.575 22.5703 106.713 22.8452C106.852 23.1179 106.921 23.4631 106.921 23.8807V27H106.167V23.9318C106.167 23.5462 106.067 23.2457 105.866 23.0305C105.666 22.8132 105.391 22.7045 105.042 22.7045C104.801 22.7045 104.586 22.7567 104.396 22.8612C104.209 22.9656 104.061 23.1179 103.952 23.3182C103.843 23.5185 103.789 23.7614 103.789 24.0469ZM110.357 27.1023C109.884 27.1023 109.476 26.9979 109.133 26.7891C108.792 26.5781 108.529 26.2841 108.344 25.907C108.161 25.5277 108.069 25.0866 108.069 24.5838C108.069 24.081 108.161 23.6378 108.344 23.2543C108.529 22.8686 108.787 22.5682 109.117 22.353C109.45 22.1357 109.838 22.027 110.281 22.027C110.536 22.027 110.789 22.0696 111.038 22.1548C111.288 22.2401 111.514 22.3786 111.719 22.5703C111.924 22.7599 112.087 23.0114 112.208 23.3246C112.329 23.6378 112.39 24.0234 112.39 24.4815V24.8011H108.606V24.1491H111.623C111.623 23.8722 111.568 23.625 111.457 23.4077C111.348 23.1903 111.193 23.0188 110.99 22.8931C110.79 22.7674 110.553 22.7045 110.281 22.7045C109.98 22.7045 109.72 22.7791 109.501 22.9283C109.284 23.0753 109.116 23.267 108.999 23.5036C108.882 23.7401 108.823 23.9936 108.823 24.2642V24.6989C108.823 25.0696 108.887 25.3839 109.015 25.6417C109.145 25.8974 109.325 26.0923 109.555 26.2266C109.785 26.3587 110.053 26.4247 110.357 26.4247C110.556 26.4247 110.735 26.397 110.894 26.3416C111.056 26.2841 111.196 26.1989 111.313 26.0859C111.43 25.9709 111.521 25.8281 111.585 25.6577L112.313 25.8622C112.237 26.1094 112.108 26.3267 111.927 26.5142C111.746 26.6996 111.522 26.8445 111.256 26.9489C110.989 27.0511 110.69 27.1023 110.357 27.1023ZM115.519 28.9432C115.155 28.9432 114.841 28.8963 114.579 28.8026C114.317 28.7109 114.099 28.5895 113.924 28.4382C113.752 28.2891 113.614 28.1293 113.512 27.9588L114.113 27.5369C114.181 27.6264 114.267 27.7287 114.372 27.8438C114.476 27.9609 114.619 28.0621 114.8 28.1474C114.983 28.2347 115.223 28.2784 115.519 28.2784C115.915 28.2784 116.242 28.1825 116.5 27.9908C116.758 27.799 116.887 27.4986 116.887 27.0895V26.0923H116.823C116.768 26.1818 116.689 26.2926 116.587 26.4247C116.486 26.5547 116.341 26.6708 116.152 26.7731C115.964 26.8732 115.711 26.9233 115.391 26.9233C114.995 26.9233 114.639 26.8295 114.324 26.642C114.011 26.4545 113.762 26.1818 113.579 25.8239C113.398 25.4659 113.307 25.0312 113.307 24.5199C113.307 24.017 113.396 23.5792 113.573 23.2063C113.75 22.8313 113.996 22.5415 114.311 22.337C114.626 22.1303 114.991 22.027 115.404 22.027C115.724 22.027 115.977 22.0803 116.165 22.1868C116.354 22.2912 116.499 22.4105 116.599 22.5447C116.702 22.6768 116.78 22.7855 116.836 22.8707H116.913V22.0909H117.641V27.1406C117.641 27.5625 117.545 27.9055 117.354 28.1697C117.164 28.4361 116.908 28.631 116.587 28.7546C116.267 28.8803 115.911 28.9432 115.519 28.9432ZM115.493 26.2457C115.796 26.2457 116.052 26.1765 116.261 26.038C116.469 25.8995 116.628 25.7003 116.737 25.4403C116.845 25.1804 116.9 24.8693 116.9 24.5071C116.9 24.1534 116.846 23.8413 116.74 23.5707C116.633 23.3001 116.476 23.0881 116.267 22.9347C116.058 22.7812 115.8 22.7045 115.493 22.7045C115.174 22.7045 114.908 22.7855 114.694 22.9474C114.484 23.1094 114.325 23.3267 114.218 23.5994C114.114 23.8722 114.062 24.1747 114.062 24.5071C114.062 24.848 114.115 25.1495 114.221 25.4116C114.33 25.6715 114.49 25.8761 114.701 26.0252C114.914 26.1722 115.178 26.2457 115.493 26.2457ZM121.016 27.1023C120.573 27.1023 120.184 26.9968 119.85 26.7859C119.517 26.5749 119.257 26.2798 119.07 25.9006C118.884 25.5213 118.792 25.0781 118.792 24.571C118.792 24.0597 118.884 23.6133 119.07 23.2319C119.257 22.8505 119.517 22.5543 119.85 22.3434C120.184 22.1325 120.573 22.027 121.016 22.027C121.459 22.027 121.847 22.1325 122.18 22.3434C122.514 22.5543 122.774 22.8505 122.959 23.2319C123.147 23.6133 123.241 24.0597 123.241 24.571C123.241 25.0781 123.147 25.5213 122.959 25.9006C122.774 26.2798 122.514 26.5749 122.18 26.7859C121.847 26.9968 121.459 27.1023 121.016 27.1023ZM121.016 26.4247C121.353 26.4247 121.63 26.3384 121.847 26.1658C122.064 25.9933 122.225 25.7663 122.33 25.4851C122.434 25.2038 122.486 24.8991 122.486 24.571C122.486 24.2429 122.434 23.9371 122.33 23.6538C122.225 23.3704 122.064 23.1413 121.847 22.9666C121.63 22.7919 121.353 22.7045 121.016 22.7045C120.68 22.7045 120.403 22.7919 120.185 22.9666C119.968 23.1413 119.807 23.3704 119.703 23.6538C119.598 23.9371 119.546 24.2429 119.546 24.571C119.546 24.8991 119.598 25.2038 119.703 25.4851C119.807 25.7663 119.968 25.9933 120.185 26.1658C120.403 26.3384 120.68 26.4247 121.016 26.4247ZM128.368 27.1151C128.057 27.1151 127.774 27.0565 127.521 26.9393C127.267 26.82 127.066 26.6484 126.917 26.4247C126.768 26.1989 126.693 25.9261 126.693 25.6065C126.693 25.3253 126.749 25.0973 126.859 24.9226C126.97 24.7457 127.118 24.6072 127.304 24.5071C127.489 24.407 127.693 24.3324 127.917 24.2834C128.143 24.2322 128.37 24.1918 128.598 24.1619C128.896 24.1236 129.138 24.0948 129.323 24.0756C129.511 24.0543 129.647 24.0192 129.733 23.9702C129.82 23.9212 129.864 23.8359 129.864 23.7145V23.6889C129.864 23.3736 129.777 23.1286 129.605 22.9538C129.434 22.7791 129.175 22.6918 128.828 22.6918C128.468 22.6918 128.186 22.7706 127.981 22.9283C127.777 23.0859 127.633 23.2543 127.55 23.4332L126.834 23.1776C126.962 22.8793 127.132 22.647 127.345 22.4808C127.56 22.3125 127.795 22.1953 128.048 22.1293C128.304 22.0611 128.555 22.027 128.803 22.027C128.96 22.027 129.141 22.0462 129.346 22.0845C129.553 22.1207 129.752 22.1964 129.943 22.3114C130.137 22.4265 130.298 22.6001 130.426 22.8324C130.554 23.0646 130.618 23.3757 130.618 23.7656V27H129.864V26.3352H129.825C129.774 26.4418 129.689 26.5558 129.57 26.6772C129.45 26.7987 129.292 26.902 129.093 26.9872C128.895 27.0724 128.653 27.1151 128.368 27.1151ZM128.483 26.4375C128.781 26.4375 129.033 26.3789 129.237 26.2617C129.444 26.1445 129.599 25.9933 129.704 25.8079C129.81 25.6225 129.864 25.4276 129.864 25.223V24.5327C129.832 24.571 129.761 24.6062 129.653 24.6381C129.546 24.668 129.423 24.6946 129.282 24.718C129.143 24.7393 129.008 24.7585 128.876 24.7756C128.746 24.7905 128.641 24.8033 128.56 24.8139C128.364 24.8395 128.18 24.881 128.01 24.9386C127.842 24.994 127.705 25.0781 127.601 25.1911C127.499 25.3018 127.447 25.4531 127.447 25.6449C127.447 25.907 127.544 26.1051 127.738 26.2393C127.934 26.3714 128.182 26.4375 128.483 26.4375ZM133.848 27.1023C133.439 27.1023 133.078 26.9989 132.765 26.7923C132.452 26.5835 132.207 26.2894 132.03 25.9102C131.853 25.5288 131.764 25.0781 131.764 24.5582C131.764 24.0426 131.853 23.5952 132.03 23.2159C132.207 22.8366 132.453 22.5437 132.768 22.337C133.083 22.1303 133.448 22.027 133.861 22.027C134.181 22.027 134.433 22.0803 134.618 22.1868C134.806 22.2912 134.949 22.4105 135.047 22.5447C135.147 22.6768 135.225 22.7855 135.28 22.8707H135.344V20.4545H136.098V27H135.37V26.2457H135.28C135.225 26.3352 135.146 26.4482 135.044 26.5845C134.941 26.7187 134.795 26.8391 134.606 26.9457C134.416 27.0501 134.164 27.1023 133.848 27.1023ZM133.951 26.4247C134.253 26.4247 134.509 26.3459 134.718 26.1882C134.926 26.0284 135.085 25.8079 135.194 25.5266C135.302 25.2433 135.357 24.9162 135.357 24.5455C135.357 24.179 135.303 23.8583 135.197 23.5835C135.09 23.3065 134.933 23.0913 134.724 22.9379C134.515 22.7823 134.257 22.7045 133.951 22.7045C133.631 22.7045 133.365 22.7866 133.152 22.9506C132.941 23.1126 132.782 23.3331 132.675 23.6122C132.571 23.8892 132.519 24.2003 132.519 24.5455C132.519 24.8949 132.572 25.2124 132.678 25.4979C132.787 25.7812 132.947 26.0071 133.158 26.1754C133.371 26.3416 133.635 26.4247 133.951 26.4247ZM137.584 27V22.0909H138.313V22.858H138.377C138.479 22.5959 138.644 22.3924 138.872 22.2475C139.1 22.1005 139.374 22.027 139.694 22.027C140.018 22.027 140.287 22.1005 140.502 22.2475C140.72 22.3924 140.889 22.5959 141.011 22.858H141.062C141.187 22.6044 141.376 22.4031 141.627 22.2539C141.879 22.1026 142.18 22.027 142.532 22.027C142.971 22.027 143.33 22.1644 143.609 22.4393C143.888 22.712 144.028 23.1371 144.028 23.7145V27H143.273V23.7145C143.273 23.3523 143.174 23.0934 142.976 22.9379C142.778 22.7823 142.545 22.7045 142.276 22.7045C141.931 22.7045 141.664 22.8089 141.474 23.0178C141.284 23.2244 141.189 23.4865 141.189 23.804V27H140.422V23.6378C140.422 23.3587 140.332 23.1339 140.151 22.9634C139.97 22.7908 139.736 22.7045 139.451 22.7045C139.255 22.7045 139.072 22.7567 138.901 22.8612C138.733 22.9656 138.596 23.1104 138.492 23.2958C138.39 23.479 138.339 23.6911 138.339 23.9318V27H137.584ZM145.407 27V22.0909H146.161V27H145.407ZM145.79 21.2727C145.643 21.2727 145.516 21.2227 145.41 21.1225C145.305 21.0224 145.253 20.902 145.253 20.7614C145.253 20.6207 145.305 20.5004 145.41 20.4002C145.516 20.3001 145.643 20.25 145.79 20.25C145.937 20.25 146.063 20.3001 146.167 20.4002C146.274 20.5004 146.327 20.6207 146.327 20.7614C146.327 20.902 146.274 21.0224 146.167 21.1225C146.063 21.2227 145.937 21.2727 145.79 21.2727ZM148.297 24.0469V27H147.542V22.0909H148.271V22.858H148.335C148.45 22.6087 148.625 22.4084 148.859 22.2571C149.094 22.1037 149.396 22.027 149.767 22.027C150.099 22.027 150.39 22.0952 150.639 22.2315C150.889 22.3658 151.083 22.5703 151.221 22.8452C151.36 23.1179 151.429 23.4631 151.429 23.8807V27H150.674V23.9318C150.674 23.5462 150.574 23.2457 150.374 23.0305C150.174 22.8132 149.899 22.7045 149.549 22.7045C149.309 22.7045 149.094 22.7567 148.904 22.8612C148.716 22.9656 148.568 23.1179 148.46 23.3182C148.351 23.5185 148.297 23.7614 148.297 24.0469ZM152.807 27V22.0909H153.561V27H152.807ZM153.191 21.2727C153.044 21.2727 152.917 21.2227 152.81 21.1225C152.706 21.0224 152.654 20.902 152.654 20.7614C152.654 20.6207 152.706 20.5004 152.81 20.4002C152.917 20.3001 153.044 20.25 153.191 20.25C153.338 20.25 153.463 20.3001 153.568 20.4002C153.674 20.5004 153.727 20.6207 153.727 20.7614C153.727 20.902 153.674 21.0224 153.568 21.1225C153.463 21.2227 153.338 21.2727 153.191 21.2727ZM158.42 23.1903L157.742 23.3821C157.7 23.2692 157.637 23.1594 157.554 23.0529C157.473 22.9442 157.362 22.8548 157.222 22.7844C157.081 22.7141 156.901 22.679 156.681 22.679C156.381 22.679 156.131 22.7482 155.93 22.8867C155.732 23.0231 155.633 23.1967 155.633 23.4077C155.633 23.5952 155.701 23.7433 155.838 23.8519C155.974 23.9606 156.187 24.0511 156.477 24.1236L157.206 24.3026C157.644 24.4091 157.972 24.5721 158.187 24.7915C158.402 25.0089 158.51 25.2891 158.51 25.6321C158.51 25.9134 158.429 26.1648 158.267 26.3864C158.107 26.608 157.883 26.7827 157.595 26.9105C157.308 27.0384 156.973 27.1023 156.592 27.1023C156.091 27.1023 155.677 26.9936 155.349 26.7763C155.021 26.5589 154.813 26.2415 154.725 25.8239L155.441 25.6449C155.51 25.9091 155.638 26.1072 155.828 26.2393C156.02 26.3714 156.27 26.4375 156.579 26.4375C156.931 26.4375 157.21 26.3629 157.417 26.2138C157.625 26.0625 157.73 25.8814 157.73 25.6705C157.73 25.5 157.67 25.3572 157.551 25.2422C157.431 25.125 157.248 25.0376 157.001 24.9801L156.183 24.7884C155.733 24.6818 155.403 24.5167 155.192 24.293C154.983 24.0671 154.879 23.7848 154.879 23.446C154.879 23.169 154.957 22.924 155.112 22.7109C155.27 22.4979 155.484 22.3306 155.755 22.2092C156.027 22.0877 156.336 22.027 156.681 22.027C157.167 22.027 157.549 22.1335 157.826 22.3466C158.105 22.5597 158.303 22.8409 158.42 23.1903ZM161.78 22.0909V22.7301H159.236V22.0909H161.78ZM159.977 20.9148H160.732V25.5938C160.732 25.8068 160.762 25.9666 160.824 26.0732C160.888 26.1776 160.969 26.2479 161.067 26.2841C161.167 26.3182 161.273 26.3352 161.384 26.3352C161.467 26.3352 161.535 26.331 161.588 26.3224C161.641 26.3118 161.684 26.3033 161.716 26.2969L161.869 26.9744C161.818 26.9936 161.747 27.0128 161.655 27.032C161.564 27.0533 161.447 27.0639 161.307 27.0639C161.094 27.0639 160.885 27.0181 160.68 26.9265C160.478 26.8349 160.31 26.6953 160.175 26.5078C160.043 26.3203 159.977 26.0838 159.977 25.7983V20.9148ZM162.914 27V22.0909H163.643V22.8324H163.694C163.784 22.5895 163.946 22.3924 164.18 22.2411C164.414 22.0898 164.679 22.0142 164.973 22.0142C165.028 22.0142 165.097 22.0153 165.18 22.0174C165.264 22.0195 165.326 22.0227 165.369 22.027V22.794C165.343 22.7876 165.285 22.7781 165.193 22.7653C165.104 22.7504 165.009 22.7429 164.909 22.7429C164.67 22.7429 164.457 22.793 164.27 22.8931C164.084 22.9911 163.937 23.1275 163.829 23.3022C163.722 23.4748 163.669 23.6719 163.669 23.8935V27H162.914ZM167.708 27.1151C167.397 27.1151 167.114 27.0565 166.861 26.9393C166.607 26.82 166.406 26.6484 166.257 26.4247C166.108 26.1989 166.033 25.9261 166.033 25.6065C166.033 25.3253 166.088 25.0973 166.199 24.9226C166.31 24.7457 166.458 24.6072 166.643 24.5071C166.829 24.407 167.033 24.3324 167.257 24.2834C167.483 24.2322 167.71 24.1918 167.938 24.1619C168.236 24.1236 168.478 24.0948 168.663 24.0756C168.851 24.0543 168.987 24.0192 169.072 23.9702C169.16 23.9212 169.203 23.8359 169.203 23.7145V23.6889C169.203 23.3736 169.117 23.1286 168.945 22.9538C168.774 22.7791 168.515 22.6918 168.168 22.6918C167.808 22.6918 167.526 22.7706 167.321 22.9283C167.116 23.0859 166.973 23.2543 166.89 23.4332L166.174 23.1776C166.301 22.8793 166.472 22.647 166.685 22.4808C166.9 22.3125 167.135 22.1953 167.388 22.1293C167.644 22.0611 167.895 22.027 168.142 22.027C168.3 22.027 168.481 22.0462 168.686 22.0845C168.892 22.1207 169.092 22.1964 169.283 22.3114C169.477 22.4265 169.638 22.6001 169.766 22.8324C169.894 23.0646 169.958 23.3757 169.958 23.7656V27H169.203V26.3352H169.165C169.114 26.4418 169.029 26.5558 168.909 26.6772C168.79 26.7987 168.631 26.902 168.433 26.9872C168.235 27.0724 167.993 27.1151 167.708 27.1151ZM167.823 26.4375C168.121 26.4375 168.372 26.3789 168.577 26.2617C168.784 26.1445 168.939 25.9933 169.044 25.8079C169.15 25.6225 169.203 25.4276 169.203 25.223V24.5327C169.171 24.571 169.101 24.6062 168.992 24.6381C168.886 24.668 168.762 24.6946 168.622 24.718C168.483 24.7393 168.348 24.7585 168.216 24.7756C168.086 24.7905 167.98 24.8033 167.899 24.8139C167.703 24.8395 167.52 24.881 167.35 24.9386C167.181 24.994 167.045 25.0781 166.941 25.1911C166.838 25.3018 166.787 25.4531 166.787 25.6449C166.787 25.907 166.884 26.1051 167.078 26.2393C167.274 26.3714 167.522 26.4375 167.823 26.4375ZM173.469 22.0909V22.7301H170.925V22.0909H173.469ZM171.667 20.9148H172.421V25.5938C172.421 25.8068 172.452 25.9666 172.514 26.0732C172.578 26.1776 172.659 26.2479 172.757 26.2841C172.857 26.3182 172.962 26.3352 173.073 26.3352C173.156 26.3352 173.224 26.331 173.278 26.3224C173.331 26.3118 173.373 26.3033 173.405 26.2969L173.559 26.9744C173.508 26.9936 173.436 27.0128 173.345 27.032C173.253 27.0533 173.137 27.0639 172.996 27.0639C172.783 27.0639 172.574 27.0181 172.37 26.9265C172.167 26.8349 171.999 26.6953 171.865 26.5078C171.733 26.3203 171.667 26.0838 171.667 25.7983V20.9148ZM176.545 27.1023C176.102 27.1023 175.713 26.9968 175.379 26.7859C175.047 26.5749 174.787 26.2798 174.599 25.9006C174.414 25.5213 174.321 25.0781 174.321 24.571C174.321 24.0597 174.414 23.6133 174.599 23.2319C174.787 22.8505 175.047 22.5543 175.379 22.3434C175.713 22.1325 176.102 22.027 176.545 22.027C176.989 22.027 177.376 22.1325 177.709 22.3434C178.043 22.5543 178.303 22.8505 178.489 23.2319C178.676 23.6133 178.77 24.0597 178.77 24.571C178.77 25.0781 178.676 25.5213 178.489 25.9006C178.303 26.2798 178.043 26.5749 177.709 26.7859C177.376 26.9968 176.989 27.1023 176.545 27.1023ZM176.545 26.4247C176.882 26.4247 177.159 26.3384 177.376 26.1658C177.594 25.9933 177.755 25.7663 177.859 25.4851C177.963 25.2038 178.016 24.8991 178.016 24.571C178.016 24.2429 177.963 23.9371 177.859 23.6538C177.755 23.3704 177.594 23.1413 177.376 22.9666C177.159 22.7919 176.882 22.7045 176.545 22.7045C176.209 22.7045 175.932 22.7919 175.715 22.9666C175.497 23.1413 175.336 23.3704 175.232 23.6538C175.128 23.9371 175.075 24.2429 175.075 24.571C175.075 24.8991 175.128 25.2038 175.232 25.4851C175.336 25.7663 175.497 25.9933 175.715 26.1658C175.932 26.3384 176.209 26.4247 176.545 26.4247ZM179.921 27V22.0909H180.65V22.8324H180.701C180.791 22.5895 180.953 22.3924 181.187 22.2411C181.421 22.0898 181.686 22.0142 181.98 22.0142C182.035 22.0142 182.104 22.0153 182.187 22.0174C182.27 22.0195 182.333 22.0227 182.376 22.027V22.794C182.35 22.7876 182.292 22.7781 182.2 22.7653C182.111 22.7504 182.016 22.7429 181.916 22.7429C181.677 22.7429 181.464 22.793 181.276 22.8931C181.091 22.9911 180.944 23.1275 180.835 23.3022C180.729 23.4748 180.676 23.6719 180.676 23.8935V27H179.921ZM184.715 27.1151C184.403 27.1151 184.121 27.0565 183.868 26.9393C183.614 26.82 183.413 26.6484 183.264 26.4247C183.114 26.1989 183.04 25.9261 183.04 25.6065C183.04 25.3253 183.095 25.0973 183.206 24.9226C183.317 24.7457 183.465 24.6072 183.65 24.5071C183.836 24.407 184.04 24.3324 184.264 24.2834C184.49 24.2322 184.717 24.1918 184.945 24.1619C185.243 24.1236 185.485 24.0948 185.67 24.0756C185.858 24.0543 185.994 24.0192 186.079 23.9702C186.167 23.9212 186.21 23.8359 186.21 23.7145V23.6889C186.21 23.3736 186.124 23.1286 185.951 22.9538C185.781 22.7791 185.522 22.6918 185.175 22.6918C184.815 22.6918 184.532 22.7706 184.328 22.9283C184.123 23.0859 183.979 23.2543 183.896 23.4332L183.18 23.1776C183.308 22.8793 183.479 22.647 183.692 22.4808C183.907 22.3125 184.141 22.1953 184.395 22.1293C184.651 22.0611 184.902 22.027 185.149 22.027C185.307 22.027 185.488 22.0462 185.693 22.0845C185.899 22.1207 186.098 22.1964 186.29 22.3114C186.484 22.4265 186.645 22.6001 186.773 22.8324C186.901 23.0646 186.965 23.3757 186.965 23.7656V27H186.21V26.3352H186.172C186.121 26.4418 186.036 26.5558 185.916 26.6772C185.797 26.7987 185.638 26.902 185.44 26.9872C185.242 27.0724 185 27.1151 184.715 27.1151ZM184.83 26.4375C185.128 26.4375 185.379 26.3789 185.584 26.2617C185.791 26.1445 185.946 25.9933 186.05 25.8079C186.157 25.6225 186.21 25.4276 186.21 25.223V24.5327C186.178 24.571 186.108 24.6062 185.999 24.6381C185.893 24.668 185.769 24.6946 185.629 24.718C185.49 24.7393 185.355 24.7585 185.223 24.7756C185.093 24.7905 184.987 24.8033 184.906 24.8139C184.71 24.8395 184.527 24.881 184.357 24.9386C184.188 24.994 184.052 25.0781 183.947 25.1911C183.845 25.3018 183.794 25.4531 183.794 25.6449C183.794 25.907 183.891 26.1051 184.085 26.2393C184.281 26.3714 184.529 26.4375 184.83 26.4375Z" fill="black"/>
<defs>
<clipPath id="clip0_223_252">
<rect width="30" height="30" rx="3" fill="white"/>
</clipPath>
</defs>
</svg>
