<svg width="125" height="30" viewBox="0 0 125 30" fill="none" xmlns="http://www.w3.org/2000/svg">
<g clip-path="url(#clip0_221_216)">
<rect width="30" height="30" rx="3" fill="#FD5959"/>
<path d="M16.5646 6.00012V29.7274M16.5646 6.00012L9.71211 7.46828V32.5L20.5 33L20.7608 8.69169L16.5646 6.00012ZM21.2296 11.1386L22.8744 12.1832L24.5193 13.2278C24.5889 18.5273 24.6062 28.2001 24.6515 33.5M9.71211 10.3941L4 12.1832V34.4424" stroke="white" stroke-width="1.68047" stroke-linecap="round" stroke-linejoin="round"/>
<path d="M16.303 6L20.6969 8.63636L21.5757 35H16.303V6Z" fill="white"/>
<path d="M21 11L25 13.4V35H21V11Z" fill="white"/>
</g>
<path d="M38.4001 16V6.18182H40.9953V7.91406H41.1104C41.3149 7.33878 41.6558 6.88494 42.1331 6.55256C42.6104 6.22017 43.1814 6.05398 43.8461 6.05398C44.5194 6.05398 45.0926 6.2223 45.5656 6.55895C46.0386 6.89133 46.354 7.34304 46.5116 7.91406H46.6139C46.8142 7.35156 47.1764 6.90199 47.7006 6.56534C48.229 6.22443 48.8532 6.05398 49.5734 6.05398C50.4896 6.05398 51.2332 6.34588 51.8042 6.92969C52.3795 7.50923 52.6672 8.33168 52.6672 9.39702V16H49.9506V9.93395C49.9506 9.38849 49.8057 8.9794 49.5159 8.70668C49.2261 8.43395 48.8639 8.29759 48.4292 8.29759C47.9349 8.29759 47.5493 8.45526 47.2723 8.7706C46.9953 9.08168 46.8568 9.4929 46.8568 10.0043V16H44.2169V9.87642C44.2169 9.39489 44.0784 9.01136 43.8014 8.72585C43.5287 8.44034 43.1686 8.29759 42.7211 8.29759C42.4186 8.29759 42.1459 8.37429 41.903 8.5277C41.6643 8.67685 41.4747 8.88778 41.3341 9.16051C41.1934 9.42898 41.1231 9.74432 41.1231 10.1065V16H38.4001ZM66.8991 9.45455C66.8991 10.8821 66.6285 12.0966 66.0873 13.098C65.5503 14.0994 64.8174 14.8643 63.8884 15.3928C62.9637 15.9169 61.9239 16.179 60.7691 16.179C59.6057 16.179 58.5617 15.9148 57.637 15.3864C56.7123 14.858 55.9814 14.093 55.4445 13.0916C54.9076 12.0902 54.6391 10.8778 54.6391 9.45455C54.6391 8.02699 54.9076 6.8125 55.4445 5.81108C55.9814 4.80966 56.7123 4.04687 57.637 3.52273C58.5617 2.99432 59.6057 2.73011 60.7691 2.73011C61.9239 2.73011 62.9637 2.99432 63.8884 3.52273C64.8174 4.04687 65.5503 4.80966 66.0873 5.81108C66.6285 6.8125 66.8991 8.02699 66.8991 9.45455ZM64.093 9.45455C64.093 8.52983 63.9545 7.75 63.6775 7.11506C63.4047 6.48011 63.0191 5.99858 62.5205 5.67045C62.0219 5.34233 61.4381 5.17827 60.7691 5.17827C60.1001 5.17827 59.5162 5.34233 59.0177 5.67045C58.5191 5.99858 58.1313 6.48011 57.8543 7.11506C57.5816 7.75 57.4452 8.52983 57.4452 9.45455C57.4452 10.3793 57.5816 11.1591 57.8543 11.794C58.1313 12.429 58.5191 12.9105 59.0177 13.2386C59.5162 13.5668 60.1001 13.7308 60.7691 13.7308C61.4381 13.7308 62.0219 13.5668 62.5205 13.2386C63.0191 12.9105 63.4047 12.429 63.6775 11.794C63.9545 11.1591 64.093 10.3793 64.093 9.45455ZM77.0672 8.98153L74.5743 9.13494C74.5317 8.92187 74.4401 8.73011 74.2994 8.55966C74.1588 8.38494 73.9735 8.24645 73.7433 8.14418C73.5175 8.03764 73.2469 7.98438 72.9316 7.98438C72.5097 7.98438 72.1539 8.07386 71.8641 8.25284C71.5743 8.42756 71.4294 8.66193 71.4294 8.95597C71.4294 9.19034 71.5232 9.38849 71.7107 9.55043C71.8982 9.71236 72.2199 9.84233 72.6759 9.94034L74.4529 10.2983C75.4074 10.4943 76.1191 10.8097 76.5878 11.2443C77.0566 11.679 77.2909 12.25 77.2909 12.9574C77.2909 13.6009 77.1013 14.1655 76.722 14.6513C76.347 15.1371 75.8314 15.5163 75.1752 15.7891C74.5232 16.0575 73.771 16.1918 72.9188 16.1918C71.6191 16.1918 70.5835 15.9212 69.8122 15.38C69.0452 14.8345 68.5956 14.093 68.4635 13.1555L71.1418 13.0149C71.2227 13.4112 71.4188 13.7138 71.7298 13.9226C72.0409 14.1271 72.4394 14.2294 72.9252 14.2294C73.4024 14.2294 73.786 14.1378 74.0757 13.9545C74.3698 13.767 74.5189 13.5263 74.5232 13.2322C74.5189 12.9851 74.4145 12.7827 74.21 12.625C74.0054 12.4631 73.6901 12.3395 73.2639 12.2543L71.5637 11.9155C70.6048 11.7237 69.8911 11.3913 69.4223 10.9183C68.9578 10.4453 68.7256 9.84233 68.7256 9.10938C68.7256 8.47869 68.896 7.93537 69.2369 7.4794C69.5821 7.02344 70.0658 6.67188 70.6879 6.42472C71.3144 6.17756 72.0473 6.05398 72.8868 6.05398C74.1269 6.05398 75.1027 6.31605 75.8144 6.8402C76.5303 7.36435 76.9479 8.07812 77.0672 8.98153ZM79.0056 16V6.18182H81.7286V16H79.0056ZM80.3735 4.91619C79.9687 4.91619 79.6214 4.78196 79.3316 4.51349C79.0461 4.24077 78.9033 3.91477 78.9033 3.53551C78.9033 3.16051 79.0461 2.83878 79.3316 2.57031C79.6214 2.29758 79.9687 2.16122 80.3735 2.16122C80.7783 2.16122 81.1235 2.29758 81.409 2.57031C81.6988 2.83878 81.8437 3.16051 81.8437 3.53551C81.8437 3.91477 81.6988 4.24077 81.409 4.51349C81.1235 4.78196 80.7783 4.91619 80.3735 4.91619ZM88.3843 16.1918C87.3744 16.1918 86.5051 15.9872 85.7764 15.5781C85.0519 15.1648 84.4937 14.581 84.1017 13.8267C83.7096 13.0682 83.5136 12.1712 83.5136 11.1357C83.5136 10.1257 83.7096 9.23935 84.1017 8.47656C84.4937 7.71378 85.0455 7.11932 85.7572 6.69318C86.4731 6.26705 87.3126 6.05398 88.2757 6.05398C88.9234 6.05398 89.5264 6.15838 90.0846 6.36719C90.6471 6.57173 91.1372 6.88068 91.5548 7.29403C91.9767 7.70739 92.3048 8.22727 92.5392 8.85369C92.7735 9.47585 92.8907 10.2045 92.8907 11.0398V11.7876H84.6002V10.1001H90.3275C90.3275 9.7081 90.2423 9.3608 90.0718 9.05824C89.9014 8.75568 89.6649 8.51918 89.3623 8.34872C89.064 8.17401 88.7167 8.08665 88.3204 8.08665C87.907 8.08665 87.5406 8.18253 87.221 8.37429C86.9056 8.56179 86.6585 8.81534 86.4795 9.13494C86.3005 9.45028 86.2089 9.80185 86.2046 10.1896V11.794C86.2046 12.2798 86.2941 12.6996 86.4731 13.0533C86.6563 13.407 86.9142 13.6797 87.2465 13.8714C87.5789 14.0632 87.9731 14.1591 88.4291 14.1591C88.7316 14.1591 89.0086 14.1165 89.26 14.0312C89.5115 13.946 89.7267 13.8182 89.9056 13.6477C90.0846 13.4773 90.221 13.2685 90.3147 13.0213L92.8332 13.1875C92.7053 13.7926 92.4433 14.321 92.047 14.7727C91.6549 15.2202 91.1478 15.5696 90.5257 15.821C89.9078 16.0682 89.194 16.1918 88.3843 16.1918ZM98.2856 16.1598C97.5399 16.1598 96.8644 15.968 96.2593 15.5845C95.6585 15.1967 95.1812 14.6278 94.8275 13.8778C94.4781 13.1236 94.3034 12.1989 94.3034 11.1037C94.3034 9.97869 94.4845 9.04332 94.8467 8.29759C95.2089 7.54759 95.6904 6.98722 96.2913 6.61648C96.8964 6.24148 97.559 6.05398 98.2792 6.05398C98.8289 6.05398 99.287 6.14773 99.6535 6.33523C100.024 6.51847 100.323 6.74858 100.548 7.02557C100.778 7.2983 100.953 7.56676 101.073 7.83097H101.156V2.90909H103.872V16H101.188V14.4276H101.073C100.945 14.7003 100.764 14.9709 100.529 15.2393C100.299 15.5036 99.9987 15.723 99.6279 15.8977C99.2615 16.0724 98.814 16.1598 98.2856 16.1598ZM99.1485 13.9929C99.5874 13.9929 99.9582 13.8736 100.261 13.6349C100.568 13.392 100.802 13.0533 100.964 12.6186C101.13 12.1839 101.213 11.6747 101.213 11.0909C101.213 10.5071 101.132 10 100.97 9.5696C100.808 9.1392 100.574 8.80682 100.267 8.57244C99.9603 8.33807 99.5874 8.22088 99.1485 8.22088C98.7011 8.22088 98.324 8.34233 98.0171 8.58523C97.7103 8.82812 97.4781 9.16477 97.3204 9.59517C97.1627 10.0256 97.0839 10.5241 97.0839 11.0909C97.0839 11.6619 97.1627 12.1669 97.3204 12.6058C97.4823 13.0405 97.7146 13.3814 98.0171 13.6286C98.324 13.8714 98.7011 13.9929 99.1485 13.9929ZM108.834 2.90909V16H106.111V2.90909H108.834ZM115.49 16.1918C114.48 16.1918 113.611 15.9872 112.882 15.5781C112.157 15.1648 111.599 14.581 111.207 13.8267C110.815 13.0682 110.619 12.1712 110.619 11.1357C110.619 10.1257 110.815 9.23935 111.207 8.47656C111.599 7.71378 112.151 7.11932 112.863 6.69318C113.579 6.26705 114.418 6.05398 115.381 6.05398C116.029 6.05398 116.632 6.15838 117.19 6.36719C117.753 6.57173 118.243 6.88068 118.66 7.29403C119.082 7.70739 119.41 8.22727 119.645 8.85369C119.879 9.47585 119.996 10.2045 119.996 11.0398V11.7876H111.706V10.1001H117.433C117.433 9.7081 117.348 9.3608 117.177 9.05824C117.007 8.75568 116.77 8.51918 116.468 8.34872C116.169 8.17401 115.822 8.08665 115.426 8.08665C115.013 8.08665 114.646 8.18253 114.326 8.37429C114.011 8.56179 113.764 8.81534 113.585 9.13494C113.406 9.45028 113.314 9.80185 113.31 10.1896V11.794C113.31 12.2798 113.4 12.6996 113.579 13.0533C113.762 13.407 114.02 13.6797 114.352 13.8714C114.684 14.0632 115.079 14.1591 115.535 14.1591C115.837 14.1591 116.114 14.1165 116.366 14.0312C116.617 13.946 116.832 13.8182 117.011 13.6477C117.19 13.4773 117.326 13.2685 117.42 13.0213L119.939 13.1875C119.811 13.7926 119.549 14.321 119.152 14.7727C118.76 15.2202 118.253 15.5696 117.631 15.821C117.013 16.0682 116.299 16.1918 115.49 16.1918Z" fill="black"/>
<path d="M38.1186 28.8409V22.0909H38.8473V22.8707H38.9367C38.9921 22.7855 39.0688 22.6768 39.1669 22.5447C39.267 22.4105 39.4098 22.2912 39.5951 22.1868C39.7826 22.0803 40.0362 22.027 40.3558 22.027C40.7691 22.027 41.1335 22.1303 41.4488 22.337C41.7642 22.5437 42.0103 22.8366 42.1871 23.2159C42.3639 23.5952 42.4524 24.0426 42.4524 24.5582C42.4524 25.0781 42.3639 25.5288 42.1871 25.9102C42.0103 26.2894 41.7652 26.5835 41.452 26.7923C41.1388 26.9989 40.7777 27.1023 40.3686 27.1023C40.0532 27.1023 39.8007 27.0501 39.6111 26.9457C39.4215 26.8391 39.2755 26.7187 39.1733 26.5845C39.071 26.4482 38.9921 26.3352 38.9367 26.2457H38.8728V28.8409H38.1186ZM38.86 24.5455C38.86 24.9162 38.9144 25.2433 39.023 25.5266C39.1317 25.8079 39.2904 26.0284 39.4992 26.1882C39.7081 26.3459 39.9637 26.4247 40.2663 26.4247C40.5816 26.4247 40.8448 26.3416 41.0557 26.1754C41.2688 26.0071 41.4286 25.7812 41.5351 25.4979C41.6438 25.2124 41.6981 24.8949 41.6981 24.5455C41.6981 24.2003 41.6448 23.8892 41.5383 23.6122C41.4339 23.3331 41.2752 23.1126 41.0621 22.9506C40.8512 22.7866 40.5859 22.7045 40.2663 22.7045C39.9595 22.7045 39.7017 22.7823 39.4929 22.9379C39.284 23.0913 39.1264 23.3065 39.0198 23.5835C38.9133 23.8583 38.86 24.179 38.86 24.5455ZM45.0475 27.1151C44.7365 27.1151 44.4541 27.0565 44.2006 26.9393C43.947 26.82 43.7457 26.6484 43.5965 26.4247C43.4474 26.1989 43.3728 25.9261 43.3728 25.6065C43.3728 25.3253 43.4282 25.0973 43.539 24.9226C43.6498 24.7457 43.7979 24.6072 43.9833 24.5071C44.1686 24.407 44.3732 24.3324 44.5969 24.2834C44.8228 24.2322 45.0497 24.1918 45.2777 24.1619C45.5759 24.1236 45.8178 24.0948 46.0032 24.0756C46.1907 24.0543 46.327 24.0192 46.4122 23.9702C46.4996 23.9212 46.5433 23.8359 46.5433 23.7145V23.6889C46.5433 23.3736 46.457 23.1286 46.2844 22.9538C46.1139 22.7791 45.8551 22.6918 45.5078 22.6918C45.1477 22.6918 44.8654 22.7706 44.6608 22.9283C44.4563 23.0859 44.3125 23.2543 44.2294 23.4332L43.5134 23.1776C43.6413 22.8793 43.8117 22.647 44.0248 22.4808C44.24 22.3125 44.4744 22.1953 44.7279 22.1293C44.9836 22.0611 45.235 22.027 45.4822 22.027C45.6399 22.027 45.821 22.0462 46.0255 22.0845C46.2322 22.1207 46.4314 22.1964 46.6232 22.3114C46.8171 22.4265 46.9779 22.6001 47.1058 22.8324C47.2336 23.0646 47.2975 23.3757 47.2975 23.7656V27H46.5433V26.3352H46.5049C46.4538 26.4418 46.3686 26.5558 46.2492 26.6772C46.1299 26.7987 45.9712 26.902 45.773 26.9872C45.5749 27.0724 45.3331 27.1151 45.0475 27.1151ZM45.1626 26.4375C45.4609 26.4375 45.7123 26.3789 45.9169 26.2617C46.1235 26.1445 46.2791 25.9933 46.3835 25.8079C46.49 25.6225 46.5433 25.4276 46.5433 25.223V24.5327C46.5113 24.571 46.441 24.6062 46.3323 24.6381C46.2258 24.668 46.1022 24.6946 45.9616 24.718C45.8231 24.7393 45.6878 24.7585 45.5557 24.7756C45.4257 24.7905 45.3203 24.8033 45.2393 24.8139C45.0433 24.8395 44.86 24.881 44.6896 24.9386C44.5213 24.994 44.3849 25.0781 44.2805 25.1911C44.1782 25.3018 44.1271 25.4531 44.1271 25.6449C44.1271 25.907 44.224 26.1051 44.4179 26.2393C44.6139 26.3714 44.8622 26.4375 45.1626 26.4375ZM49.4285 24.0469V27H48.6742V22.0909H49.4029V22.858H49.4668C49.5819 22.6087 49.7566 22.4084 49.991 22.2571C50.2254 22.1037 50.5279 22.027 50.8987 22.027C51.231 22.027 51.5219 22.0952 51.7712 22.2315C52.0205 22.3658 52.2144 22.5703 52.3528 22.8452C52.4913 23.1179 52.5606 23.4631 52.5606 23.8807V27H51.8063V23.9318C51.8063 23.5462 51.7062 23.2457 51.5059 23.0305C51.3056 22.8132 51.0308 22.7045 50.6813 22.7045C50.4406 22.7045 50.2254 22.7567 50.0357 22.8612C49.8482 22.9656 49.7002 23.1179 49.5915 23.3182C49.4828 23.5185 49.4285 23.7614 49.4285 24.0469ZM55.9971 27.1023C55.5241 27.1023 55.1161 26.9979 54.773 26.7891C54.4321 26.5781 54.169 26.2841 53.9836 25.907C53.8004 25.5277 53.7088 25.0866 53.7088 24.5838C53.7088 24.081 53.8004 23.6378 53.9836 23.2543C54.169 22.8686 54.4268 22.5682 54.7571 22.353C55.0894 22.1357 55.4772 22.027 55.9204 22.027C56.1761 22.027 56.4286 22.0696 56.6779 22.1548C56.9272 22.2401 57.1541 22.3786 57.3586 22.5703C57.5632 22.7599 57.7262 23.0114 57.8476 23.3246C57.9691 23.6378 58.0298 24.0234 58.0298 24.4815V24.8011H54.2457V24.1491H57.2627C57.2627 23.8722 57.2073 23.625 57.0965 23.4077C56.9879 23.1903 56.8323 23.0188 56.6299 22.8931C56.4296 22.7674 56.1931 22.7045 55.9204 22.7045C55.62 22.7045 55.36 22.7791 55.1406 22.9283C54.9233 23.0753 54.756 23.267 54.6388 23.5036C54.5216 23.7401 54.463 23.9936 54.463 24.2642V24.6989C54.463 25.0696 54.5269 25.3839 54.6548 25.6417C54.7848 25.8974 54.9648 26.0923 55.1949 26.2266C55.425 26.3587 55.6924 26.4247 55.9971 26.4247C56.1953 26.4247 56.3742 26.397 56.534 26.3416C56.696 26.2841 56.8355 26.1989 56.9527 26.0859C57.0699 25.9709 57.1605 25.8281 57.2244 25.6577L57.9531 25.8622C57.8764 26.1094 57.7475 26.3267 57.5664 26.5142C57.3853 26.6996 57.1615 26.8445 56.8952 26.9489C56.6289 27.0511 56.3295 27.1023 55.9971 27.1023ZM59.9314 20.4545V27H59.1772V20.4545H59.9314ZM65.2888 27.1151C64.9777 27.1151 64.6954 27.0565 64.4418 26.9393C64.1883 26.82 63.9869 26.6484 63.8378 26.4247C63.6886 26.1989 63.614 25.9261 63.614 25.6065C63.614 25.3253 63.6694 25.0973 63.7802 24.9226C63.891 24.7457 64.0391 24.6072 64.2245 24.5071C64.4098 24.407 64.6144 24.3324 64.8381 24.2834C65.064 24.2322 65.2909 24.1918 65.5189 24.1619C65.8172 24.1236 66.059 24.0948 66.2444 24.0756C66.4319 24.0543 66.5682 24.0192 66.6535 23.9702C66.7408 23.9212 66.7845 23.8359 66.7845 23.7145V23.6889C66.7845 23.3736 66.6982 23.1286 66.5256 22.9538C66.3552 22.7791 66.0963 22.6918 65.749 22.6918C65.3889 22.6918 65.1066 22.7706 64.902 22.9283C64.6975 23.0859 64.5537 23.2543 64.4706 23.4332L63.7547 23.1776C63.8825 22.8793 64.053 22.647 64.266 22.4808C64.4812 22.3125 64.7156 22.1953 64.9691 22.1293C65.2248 22.0611 65.4763 22.027 65.7234 22.027C65.8811 22.027 66.0622 22.0462 66.2667 22.0845C66.4734 22.1207 66.6726 22.1964 66.8644 22.3114C67.0583 22.4265 67.2191 22.6001 67.347 22.8324C67.4748 23.0646 67.5388 23.3757 67.5388 23.7656V27H66.7845V26.3352H66.7461C66.695 26.4418 66.6098 26.5558 66.4905 26.6772C66.3711 26.7987 66.2124 26.902 66.0142 26.9872C65.8161 27.0724 65.5743 27.1151 65.2888 27.1151ZM65.4038 26.4375C65.7021 26.4375 65.9535 26.3789 66.1581 26.2617C66.3647 26.1445 66.5203 25.9933 66.6247 25.8079C66.7312 25.6225 66.7845 25.4276 66.7845 25.223V24.5327C66.7525 24.571 66.6822 24.6062 66.5736 24.6381C66.467 24.668 66.3434 24.6946 66.2028 24.718C66.0643 24.7393 65.929 24.7585 65.7969 24.7756C65.6669 24.7905 65.5615 24.8033 65.4805 24.8139C65.2845 24.8395 65.1013 24.881 64.9308 24.9386C64.7625 24.994 64.6261 25.0781 64.5217 25.1911C64.4194 25.3018 64.3683 25.4531 64.3683 25.6449C64.3683 25.907 64.4652 26.1051 64.6591 26.2393C64.8552 26.3714 65.1034 26.4375 65.4038 26.4375ZM70.7691 27.1023C70.36 27.1023 69.9989 26.9989 69.6857 26.7923C69.3725 26.5835 69.1274 26.2894 68.9506 25.9102C68.7737 25.5288 68.6853 25.0781 68.6853 24.5582C68.6853 24.0426 68.7737 23.5952 68.9506 23.2159C69.1274 22.8366 69.3735 22.5437 69.6889 22.337C70.0042 22.1303 70.3686 22.027 70.7819 22.027C71.1015 22.027 71.354 22.0803 71.5394 22.1868C71.7269 22.2912 71.8696 22.4105 71.9676 22.5447C72.0678 22.6768 72.1456 22.7855 72.201 22.8707H72.2649V20.4545H73.0191V27H72.2904V26.2457H72.201C72.1456 26.3352 72.0667 26.4482 71.9644 26.5845C71.8622 26.7187 71.7162 26.8391 71.5266 26.9457C71.337 27.0501 71.0845 27.1023 70.7691 27.1023ZM70.8714 26.4247C71.174 26.4247 71.4296 26.3459 71.6385 26.1882C71.8473 26.0284 72.006 25.8079 72.1147 25.5266C72.2233 25.2433 72.2777 24.9162 72.2777 24.5455C72.2777 24.179 72.2244 23.8583 72.1179 23.5835C72.0113 23.3065 71.8536 23.0913 71.6448 22.9379C71.436 22.7823 71.1782 22.7045 70.8714 22.7045C70.5518 22.7045 70.2855 22.7866 70.0724 22.9506C69.8615 23.1126 69.7027 23.3331 69.5962 23.6122C69.4918 23.8892 69.4396 24.2003 69.4396 24.5455C69.4396 24.8949 69.4929 25.2124 69.5994 25.4979C69.7081 25.7812 69.8679 26.0071 70.0788 26.1754C70.2919 26.3416 70.5561 26.4247 70.8714 26.4247ZM74.5053 27V22.0909H75.234V22.858H75.2979C75.4002 22.5959 75.5653 22.3924 75.7933 22.2475C76.0213 22.1005 76.2951 22.027 76.6147 22.027C76.9385 22.027 77.2081 22.1005 77.4233 22.2475C77.6406 22.3924 77.81 22.5959 77.9314 22.858H77.9826C78.1083 22.6044 78.2968 22.4031 78.5483 22.2539C78.7997 22.1026 79.1012 22.027 79.4527 22.027C79.8916 22.027 80.2507 22.1644 80.5298 22.4393C80.8089 22.712 80.9485 23.1371 80.9485 23.7145V27H80.1942V23.7145C80.1942 23.3523 80.0951 23.0934 79.897 22.9379C79.6988 22.7823 79.4655 22.7045 79.197 22.7045C78.8519 22.7045 78.5845 22.8089 78.3948 23.0178C78.2052 23.2244 78.1104 23.4865 78.1104 23.804V27H77.3434V23.6378C77.3434 23.3587 77.2528 23.1339 77.0717 22.9634C76.8906 22.7908 76.6573 22.7045 76.3718 22.7045C76.1757 22.7045 75.9925 22.7567 75.822 22.8612C75.6537 22.9656 75.5174 23.1104 75.413 23.2958C75.3107 23.479 75.2595 23.6911 75.2595 23.9318V27H74.5053ZM82.3275 27V22.0909H83.0818V27H82.3275ZM82.7111 21.2727C82.5641 21.2727 82.4373 21.2227 82.3307 21.1225C82.2263 21.0224 82.1741 20.902 82.1741 20.7614C82.1741 20.6207 82.2263 20.5004 82.3307 20.4002C82.4373 20.3001 82.5641 20.25 82.7111 20.25C82.8581 20.25 82.9838 20.3001 83.0882 20.4002C83.1947 20.5004 83.248 20.6207 83.248 20.7614C83.248 20.902 83.1947 21.0224 83.0882 21.1225C82.9838 21.2227 82.8581 21.2727 82.7111 21.2727ZM85.2176 24.0469V27H84.4633V22.0909H85.192V22.858H85.2559C85.371 22.6087 85.5457 22.4084 85.7801 22.2571C86.0144 22.1037 86.317 22.027 86.6877 22.027C87.0201 22.027 87.3109 22.0952 87.5602 22.2315C87.8095 22.3658 88.0034 22.5703 88.1419 22.8452C88.2804 23.1179 88.3497 23.4631 88.3497 23.8807V27H87.5954V23.9318C87.5954 23.5462 87.4953 23.2457 87.295 23.0305C87.0947 22.8132 86.8198 22.7045 86.4704 22.7045C86.2296 22.7045 86.0144 22.7567 85.8248 22.8612C85.6373 22.9656 85.4892 23.1179 85.3805 23.3182C85.2719 23.5185 85.2176 23.7614 85.2176 24.0469ZM89.7279 27V22.0909H90.4822V27H89.7279ZM90.1115 21.2727C89.9644 21.2727 89.8377 21.2227 89.7311 21.1225C89.6267 21.0224 89.5745 20.902 89.5745 20.7614C89.5745 20.6207 89.6267 20.5004 89.7311 20.4002C89.8377 20.3001 89.9644 20.25 90.1115 20.25C90.2585 20.25 90.3842 20.3001 90.4886 20.4002C90.5951 20.5004 90.6484 20.6207 90.6484 20.7614C90.6484 20.902 90.5951 21.0224 90.4886 21.1225C90.3842 21.2227 90.2585 21.2727 90.1115 21.2727ZM95.341 23.1903L94.6634 23.3821C94.6208 23.2692 94.5579 23.1594 94.4748 23.0529C94.3939 22.9442 94.2831 22.8548 94.1424 22.7844C94.0018 22.7141 93.8218 22.679 93.6023 22.679C93.3019 22.679 93.0515 22.7482 92.8513 22.8867C92.6531 23.0231 92.554 23.1967 92.554 23.4077C92.554 23.5952 92.6222 23.7433 92.7586 23.8519C92.8949 23.9606 93.108 24.0511 93.3978 24.1236L94.1265 24.3026C94.5654 24.4091 94.8924 24.5721 95.1076 24.7915C95.3228 25.0089 95.4304 25.2891 95.4304 25.6321C95.4304 25.9134 95.3495 26.1648 95.1875 26.3864C95.0277 26.608 94.804 26.7827 94.5164 26.9105C94.2287 27.0384 93.8942 27.1023 93.5128 27.1023C93.0121 27.1023 92.5977 26.9936 92.2696 26.7763C91.9415 26.5589 91.7337 26.2415 91.6464 25.8239L92.3623 25.6449C92.4304 25.9091 92.5593 26.1072 92.749 26.2393C92.9407 26.3714 93.1911 26.4375 93.5 26.4375C93.8516 26.4375 94.1307 26.3629 94.3374 26.2138C94.5462 26.0625 94.6506 25.8814 94.6506 25.6705C94.6506 25.5 94.591 25.3572 94.4716 25.2422C94.3523 25.125 94.1691 25.0376 93.9219 24.9801L93.1037 24.7884C92.6542 24.6818 92.3239 24.5167 92.113 24.293C91.9042 24.0671 91.7998 23.7848 91.7998 23.446C91.7998 23.169 91.8775 22.924 92.0331 22.7109C92.1907 22.4979 92.4049 22.3306 92.6755 22.2092C92.9482 22.0877 93.2571 22.027 93.6023 22.027C94.0881 22.027 94.4695 22.1335 94.7465 22.3466C95.0256 22.5597 95.2238 22.8409 95.341 23.1903ZM98.7008 22.0909V22.7301H96.1567V22.0909H98.7008ZM96.8982 20.9148H97.6525V25.5938C97.6525 25.8068 97.6834 25.9666 97.7452 26.0732C97.8091 26.1776 97.89 26.2479 97.9881 26.2841C98.0882 26.3182 98.1937 26.3352 98.3045 26.3352C98.3876 26.3352 98.4557 26.331 98.509 26.3224C98.5623 26.3118 98.6049 26.3033 98.6369 26.2969L98.7903 26.9744C98.7391 26.9936 98.6677 27.0128 98.5761 27.032C98.4845 27.0533 98.3684 27.0639 98.2278 27.0639C98.0147 27.0639 97.8059 27.0181 97.6013 26.9265C97.3989 26.8349 97.2306 26.6953 97.0964 26.5078C96.9643 26.3203 96.8982 26.0838 96.8982 25.7983V20.9148ZM99.8354 27V22.0909H100.564V22.8324H100.615C100.705 22.5895 100.867 22.3924 101.101 22.2411C101.335 22.0898 101.6 22.0142 101.894 22.0142C101.949 22.0142 102.018 22.0153 102.101 22.0174C102.184 22.0195 102.247 22.0227 102.29 22.027V22.794C102.264 22.7876 102.206 22.7781 102.114 22.7653C102.025 22.7504 101.93 22.7429 101.83 22.7429C101.591 22.7429 101.378 22.793 101.19 22.8931C101.005 22.9911 100.858 23.1275 100.749 23.3022C100.643 23.4748 100.59 23.6719 100.59 23.8935V27H99.8354ZM104.629 27.1151C104.318 27.1151 104.035 27.0565 103.782 26.9393C103.528 26.82 103.327 26.6484 103.178 26.4247C103.028 26.1989 102.954 25.9261 102.954 25.6065C102.954 25.3253 103.009 25.0973 103.12 24.9226C103.231 24.7457 103.379 24.6072 103.564 24.5071C103.75 24.407 103.954 24.3324 104.178 24.2834C104.404 24.2322 104.631 24.1918 104.859 24.1619C105.157 24.1236 105.399 24.0948 105.584 24.0756C105.772 24.0543 105.908 24.0192 105.993 23.9702C106.081 23.9212 106.124 23.8359 106.124 23.7145V23.6889C106.124 23.3736 106.038 23.1286 105.865 22.9538C105.695 22.7791 105.436 22.6918 105.089 22.6918C104.729 22.6918 104.446 22.7706 104.242 22.9283C104.037 23.0859 103.894 23.2543 103.81 23.4332L103.095 23.1776C103.222 22.8793 103.393 22.647 103.606 22.4808C103.821 22.3125 104.055 22.1953 104.309 22.1293C104.565 22.0611 104.816 22.027 105.063 22.027C105.221 22.027 105.402 22.0462 105.607 22.0845C105.813 22.1207 106.012 22.1964 106.204 22.3114C106.398 22.4265 106.559 22.6001 106.687 22.8324C106.815 23.0646 106.879 23.3757 106.879 23.7656V27H106.124V26.3352H106.086C106.035 26.4418 105.95 26.5558 105.83 26.6772C105.711 26.7987 105.552 26.902 105.354 26.9872C105.156 27.0724 104.914 27.1151 104.629 27.1151ZM104.744 26.4375C105.042 26.4375 105.293 26.3789 105.498 26.2617C105.705 26.1445 105.86 25.9933 105.965 25.8079C106.071 25.6225 106.124 25.4276 106.124 25.223V24.5327C106.092 24.571 106.022 24.6062 105.913 24.6381C105.807 24.668 105.683 24.6946 105.543 24.718C105.404 24.7393 105.269 24.7585 105.137 24.7756C105.007 24.7905 104.901 24.8033 104.82 24.8139C104.624 24.8395 104.441 24.881 104.271 24.9386C104.102 24.994 103.966 25.0781 103.862 25.1911C103.759 25.3018 103.708 25.4531 103.708 25.6449C103.708 25.907 103.805 26.1051 103.999 26.2393C104.195 26.3714 104.443 26.4375 104.744 26.4375ZM110.39 22.0909V22.7301H107.846V22.0909H110.39ZM108.588 20.9148H109.342V25.5938C109.342 25.8068 109.373 25.9666 109.435 26.0732C109.499 26.1776 109.58 26.2479 109.678 26.2841C109.778 26.3182 109.883 26.3352 109.994 26.3352C110.077 26.3352 110.145 26.331 110.198 26.3224C110.252 26.3118 110.294 26.3033 110.326 26.2969L110.48 26.9744C110.429 26.9936 110.357 27.0128 110.266 27.032C110.174 27.0533 110.058 27.0639 109.917 27.0639C109.704 27.0639 109.495 27.0181 109.291 26.9265C109.088 26.8349 108.92 26.6953 108.786 26.5078C108.654 26.3203 108.588 26.0838 108.588 25.7983V20.9148ZM113.466 27.1023C113.023 27.1023 112.634 26.9968 112.3 26.7859C111.967 26.5749 111.708 26.2798 111.52 25.9006C111.335 25.5213 111.242 25.0781 111.242 24.571C111.242 24.0597 111.335 23.6133 111.52 23.2319C111.708 22.8505 111.967 22.5543 112.3 22.3434C112.634 22.1325 113.023 22.027 113.466 22.027C113.91 22.027 114.297 22.1325 114.63 22.3434C114.964 22.5543 115.224 22.8505 115.41 23.2319C115.597 23.6133 115.691 24.0597 115.691 24.571C115.691 25.0781 115.597 25.5213 115.41 25.9006C115.224 26.2798 114.964 26.5749 114.63 26.7859C114.297 26.9968 113.91 27.1023 113.466 27.1023ZM113.466 26.4247C113.803 26.4247 114.08 26.3384 114.297 26.1658C114.515 25.9933 114.676 25.7663 114.78 25.4851C114.884 25.2038 114.937 24.8991 114.937 24.571C114.937 24.2429 114.884 23.9371 114.78 23.6538C114.676 23.3704 114.515 23.1413 114.297 22.9666C114.08 22.7919 113.803 22.7045 113.466 22.7045C113.13 22.7045 112.853 22.7919 112.635 22.9666C112.418 23.1413 112.257 23.3704 112.153 23.6538C112.048 23.9371 111.996 24.2429 111.996 24.571C111.996 24.8991 112.048 25.2038 112.153 25.4851C112.257 25.7663 112.418 25.9933 112.635 26.1658C112.853 26.3384 113.13 26.4247 113.466 26.4247ZM116.842 27V22.0909H117.571V22.8324H117.622C117.712 22.5895 117.873 22.3924 118.108 22.2411C118.342 22.0898 118.606 22.0142 118.9 22.0142C118.956 22.0142 119.025 22.0153 119.108 22.0174C119.191 22.0195 119.254 22.0227 119.297 22.027V22.794C119.271 22.7876 119.213 22.7781 119.121 22.7653C119.031 22.7504 118.937 22.7429 118.837 22.7429C118.598 22.7429 118.385 22.793 118.197 22.8931C118.012 22.9911 117.865 23.1275 117.756 23.3022C117.65 23.4748 117.596 23.6719 117.596 23.8935V27H116.842ZM121.635 27.1151C121.324 27.1151 121.042 27.0565 120.788 26.9393C120.535 26.82 120.334 26.6484 120.184 26.4247C120.035 26.1989 119.961 25.9261 119.961 25.6065C119.961 25.3253 120.016 25.0973 120.127 24.9226C120.238 24.7457 120.386 24.6072 120.571 24.5071C120.757 24.407 120.961 24.3324 121.185 24.2834C121.411 24.2322 121.638 24.1918 121.866 24.1619C122.164 24.1236 122.406 24.0948 122.591 24.0756C122.779 24.0543 122.915 24.0192 123 23.9702C123.087 23.9212 123.131 23.8359 123.131 23.7145V23.6889C123.131 23.3736 123.045 23.1286 122.872 22.9538C122.702 22.7791 122.443 22.6918 122.096 22.6918C121.736 22.6918 121.453 22.7706 121.249 22.9283C121.044 23.0859 120.9 23.2543 120.817 23.4332L120.101 23.1776C120.229 22.8793 120.4 22.647 120.613 22.4808C120.828 22.3125 121.062 22.1953 121.316 22.1293C121.572 22.0611 121.823 22.027 122.07 22.027C122.228 22.027 122.409 22.0462 122.613 22.0845C122.82 22.1207 123.019 22.1964 123.211 22.3114C123.405 22.4265 123.566 22.6001 123.694 22.8324C123.822 23.0646 123.885 23.3757 123.885 23.7656V27H123.131V26.3352H123.093C123.042 26.4418 122.956 26.5558 122.837 26.6772C122.718 26.7987 122.559 26.902 122.361 26.9872C122.163 27.0724 121.921 27.1151 121.635 27.1151ZM121.75 26.4375C122.049 26.4375 122.3 26.3789 122.505 26.2617C122.711 26.1445 122.867 25.9933 122.971 25.8079C123.078 25.6225 123.131 25.4276 123.131 25.223V24.5327C123.099 24.571 123.029 24.6062 122.92 24.6381C122.814 24.668 122.69 24.6946 122.549 24.718C122.411 24.7393 122.276 24.7585 122.144 24.7756C122.014 24.7905 121.908 24.8033 121.827 24.8139C121.631 24.8395 121.448 24.881 121.277 24.9386C121.109 24.994 120.973 25.0781 120.868 25.1911C120.766 25.3018 120.715 25.4531 120.715 25.6449C120.715 25.907 120.812 26.1051 121.006 26.2393C121.202 26.3714 121.45 26.4375 121.75 26.4375Z" fill="black"/>
<defs>
<clipPath id="clip0_221_216">
<rect width="30" height="30" rx="3" fill="white"/>
</clipPath>
</defs>
</svg>
